<?xml version="1.0" standalone="no"?>
<!DOCTYPE svg PUBLIC "-//W3C//DTD SVG 1.1//EN" "http://www.w3.org/Graphics/SVG/1.1/DTD/svg11.dtd" >
<svg xmlns="http://www.w3.org/2000/svg" xmlns:xlink="http://www.w3.org/1999/xlink" version="1.1">
<metadata></metadata>
<defs>
<font id="kallistothin" horiz-adv-x="1673" >
<font-face units-per-em="2048" ascent="1626" descent="-422" />
<missing-glyph horiz-adv-x="512" />
<glyph unicode="&#xfb01;" horiz-adv-x="1142" d="M20 1090v40q0 21 21 21h190q0 125 15 194t57 119q43 50 121.5 70t212.5 20h129q20 0 20 -20v-41q0 -20 -20 -20h-129q-208 0 -266 -58q-58 -55 -58 -264h453q20 0 20 -21v-40q0 -21 -20 -21h-453v-1049q0 -20 -20 -20h-41q-21 0 -21 20v1049h-190q-21 0 -21 21zM944 20 v1110q0 21 21 21h41q20 0 20 -21v-1110q0 -20 -20 -20h-41q-21 0 -21 20zM944 1298v236q0 20 21 20h41q20 0 20 -20v-236q0 -20 -20 -20h-41q-21 0 -21 20z" />
<glyph unicode="&#xfb02;" horiz-adv-x="1142" d="M20 1090v40q0 21 21 21h190q0 125 15 194t57 119q43 50 121.5 70t212.5 20h129q20 0 20 -20v-41q0 -20 -20 -20h-129q-208 0 -266 -58q-58 -55 -58 -264h453q20 0 20 -21v-40q0 -21 -20 -21h-453v-1049q0 -20 -20 -20h-41q-21 0 -21 20v1049h-190q-21 0 -21 21zM944 20 v1514q0 20 21 20h41q20 0 20 -20v-1514q0 -20 -20 -20h-41q-21 0 -21 20z" />
<glyph horiz-adv-x="0" />
<glyph horiz-adv-x="682" />
<glyph unicode=" "  horiz-adv-x="512" />
<glyph unicode="&#x09;" horiz-adv-x="512" />
<glyph unicode="&#xa0;" horiz-adv-x="512" />
<glyph unicode="!" horiz-adv-x="348" d="M129 1178v247q0 21 21 21h49q20 0 20 -21v-247l-18 -729q0 -21 -21 -21h-12q-21 0 -21 21zM133 20v256q0 21 21 21h41q20 0 20 -21v-256q0 -20 -20 -20h-41q-21 0 -21 20z" />
<glyph unicode="&#x22;" horiz-adv-x="651" d="M117 1425q0 21 20 21h64q20 0 20 -21l-18 -620q0 -21 -21 -21h-26q-21 0 -21 21zM430 1425q0 21 21 21h63q21 0 21 -21l-19 -620q0 -21 -20 -21h-27q-20 0 -20 21z" />
<glyph unicode="#" horiz-adv-x="1544" d="M84 455v41q0 20 20 20h349l108 412h-332q-20 0 -20 20v41q0 21 20 21h355l110 417q3 19 23 19h37q25 0 18 -23l-108 -413h380l111 417q3 19 23 19h36q26 0 19 -23l-109 -413h318q20 0 20 -21v-41q0 -20 -20 -20h-340l-109 -412h324q20 0 20 -20v-41q0 -21 -20 -21h-346 l-111 -416q-3 -18 -22 -18h-37q-26 0 -19 23l109 411h-381l-111 -416q-3 -18 -22 -18h-37q-25 0 -18 23l108 411h-326q-20 0 -20 21zM532 516h381l109 412h-381z" />
<glyph unicode="$" horiz-adv-x="1509" d="M82 467q0 20 20 20h41q21 0 21 -20q3 -225 86 -305q86 -80 317 -80h144v608l-164 15q-251 21 -354 92q-101 73 -101 264q0 207 111 295q113 90 395 90h113v129q0 20 20 20h41q21 0 21 -20v-129h149q271 0 375 -107q107 -104 110 -360q0 -21 -20 -21h-41q-20 0 -20 21 q-3 225 -89 305q-83 80 -315 80h-149v-598l198 -16q248 -21 352 -97q105 -77 105 -266q0 -211 -111 -299q-110 -88 -395 -88h-149v-125q0 -20 -21 -20h-41q-20 0 -20 20v125h-144q-270 0 -377 104q-105 108 -108 363zM174 1061q0 -153 78 -207q80 -50 301 -68l158 -12v590 h-113q-248 0 -336 -64t-88 -239zM793 82h149q248 0 334 63q90 66 90 242q0 155 -82 207q-83 56 -299 74l-192 16v-602z" />
<glyph unicode="%" horiz-adv-x="2340" d="M76 971v26q0 223 101 336t323 113h69q222 0 323 -113t101 -336v-26q0 -228 -101 -341.5t-323 -113.5h-69q-222 0 -323 113.5t-101 341.5zM158 971q0 -201 79.5 -287t262.5 -86h69q183 0 262.5 86t79.5 287v26q0 195 -79.5 281t-262.5 86h-69q-183 0 -262.5 -86 t-79.5 -281v-26zM862 25l531 1405q6 16 22 16h43q23 0 17 -25l-531 -1405q-6 -16 -22 -16h-43q-23 0 -17 25zM1348 455v26q0 223 101 336t323 113h69q222 0 323 -113t101 -336v-26q0 -228 -101 -341.5t-323 -113.5h-69q-222 0 -323 113.5t-101 341.5zM1430 455 q0 -201 79.5 -287t262.5 -86h69q183 0 262.5 86t79.5 287v26q0 195 -79.5 281t-262.5 86h-69q-183 0 -262.5 -86t-79.5 -281v-26z" />
<glyph unicode="&#x26;" horiz-adv-x="1617" d="M82 367v18q0 175 82 254q70 63 147 86q-45 14 -74 30.5t-67 51.5q-78 72 -78 244v20q0 198 114.5 286.5t373.5 88.5h434q20 0 20 -21v-41q0 -20 -20 -20h-434q-226 0 -316 -66t-90 -227v-20q0 -149 73.5 -217t241.5 -68h854v358q0 21 21 21h41q20 0 20 -21v-358h131 q21 0 21 -21v-43q0 -20 -21 -20h-131v-195q0 -272 -106 -378q-106 -109 -379 -109h-375q-259 0 -371 85t-112 282zM164 367q0 -157 86 -222q86 -63 315 -63h375q236 0 320 84q83 83 83 321v195h-854q-169 0 -247 -72t-78 -225v-18z" />
<glyph unicode="'" horiz-adv-x="337" d="M117 1425q0 21 20 21h64q20 0 20 -21l-18 -620q0 -21 -21 -21h-26q-21 0 -21 21z" />
<glyph unicode="(" horiz-adv-x="585" d="M86 365v720q0 140 13.5 215t54.5 136q42 62 124.5 89t221.5 29q20 0 20 -20v-41q0 -20 -20 -20q-118 -2 -181 -19t-98 -65q-33 -47 -43 -109.5t-10 -194.5v-720q0 -132 10 -194.5t43 -109.5q35 -48 98 -65t181 -19q20 0 20 -20v-41q0 -20 -20 -20q-139 2 -221.5 29 t-124.5 89q-41 61 -54.5 136t-13.5 215z" />
<glyph unicode=")" horiz-adv-x="585" d="M66 -43q0 20 20 20q118 2 180 19t96 65q35 47 45.5 110t10.5 194v720q0 131 -10.5 194t-45.5 110q-34 48 -96 65t-180 19q-20 0 -20 20v41q0 20 20 20q139 -2 221.5 -29t124.5 -89q41 -61 54.5 -136t13.5 -215v-720q0 -140 -13.5 -215t-54.5 -136q-42 -62 -124.5 -89 t-221.5 -29q-20 0 -20 20v41z" />
<glyph unicode="*" horiz-adv-x="1087" d="M147 901q-10 17 9 27l350 172l-350 166q-19 9 -9 26l31 62q10 24 29 8l321 -215l-26 387q0 20 18 20h68q18 0 18 -20l-26 -389l321 217q19 16 29 -8l31 -62q10 -17 -9 -26l-350 -166l350 -172q19 -10 9 -27l-31 -57q-10 -22 -29 -6l-321 217l26 -389q0 -21 -18 -21h-68 q-18 0 -18 21l24 387l-319 -215q-19 -16 -29 6z" />
<glyph unicode="+" horiz-adv-x="1120" d="M86 705v40q0 21 20 21h414v408q0 20 21 20h41q20 0 20 -20v-408h412q20 0 20 -21v-40q0 -21 -20 -21h-412v-412q0 -20 -20 -20h-41q-21 0 -21 20v412h-414q-20 0 -20 21z" />
<glyph unicode="," horiz-adv-x="372" d="M12 -305l176 622q7 17 23 17h61q11 0 15.5 -6.5t1.5 -16.5l-209 -622q-7 -17 -25 -17h-24q-26 0 -19 23z" />
<glyph unicode="-" horiz-adv-x="684" d="M66 569v41q0 21 20 21h512q20 0 20 -21v-41q0 -20 -20 -20h-512q-20 0 -20 20z" />
<glyph unicode="." horiz-adv-x="339" d="M129 20v256q0 21 21 21h40q21 0 21 -21v-256q0 -20 -21 -20h-40q-21 0 -21 20z" />
<glyph unicode="/" horiz-adv-x="528" d="M43 23l373 1404q3 19 22 19h37q26 0 19 -23l-373 -1405q-3 -18 -23 -18h-37q-25 0 -18 23z" />
<glyph unicode="0" horiz-adv-x="1632" d="M102 498v448q0 258 109 379t377 121h456q268 0 377 -121t109 -379v-448q0 -258 -109 -379q-107 -119 -377 -119h-456q-270 0 -377 119q-109 121 -109 379zM184 498q0 -235 88 -326q90 -90 316 -90h456q226 0 316 90q88 91 88 326v448q0 238 -88 326q-89 92 -316 92h-456 q-227 0 -316 -92q-88 -88 -88 -326v-448z" />
<glyph unicode="1" horiz-adv-x="520" d="M20 1169v41q0 21 21 21h188q53 0 66.5 16.5t13.5 79.5v98q0 21 21 21h41q20 0 20 -21v-1405q0 -20 -20 -20h-41q-21 0 -21 20v1129h-268q-21 0 -21 20z" />
<glyph unicode="2" horiz-adv-x="1458" d="M92 20v48q0 16 14 24l842 526q224 140 287 209q59 65 59 201q0 201 -82 268q-83 68 -321 68h-313q-240 0 -324 -84q-80 -83 -80 -334v-37q0 -20 -20 -20h-41q-21 0 -21 20v37q0 139 19 224t69 149q54 67 149 97t249 30h313q279 0 383 -96q102 -95 102 -322 q0 -92 -17.5 -149t-66.5 -109q-43 -45 -104 -90q-39 -30 -162 -107q-15 -7 -37 -22l-747 -469h1110q20 0 20 -21v-41q0 -20 -20 -20h-1239q-21 0 -21 20z" />
<glyph unicode="3" horiz-adv-x="1497" d="M82 467q0 20 20 20h41q21 0 21 -20q3 -225 86 -305q86 -80 317 -80h355q229 0 313 63q88 64 88 222v18q0 153 -78.5 225t-247.5 72h-501q-21 0 -21 20v43q0 21 21 21h501q169 0 242.5 68t73.5 217v20q0 161 -90 227t-316 66h-340q-231 0 -317 -80q-83 -80 -86 -305 q0 -21 -21 -21h-41q-20 0 -20 21q3 257 111 362t374 105h340q259 0 373.5 -88.5t114.5 -286.5v-20q0 -172 -78 -244q-38 -35 -67 -51.5t-74 -30.5q46 -14 77 -32t68 -54q84 -75 84 -254v-18q0 -197 -112 -282t-371 -85h-355q-267 0 -374 104q-108 105 -111 363z" />
<glyph unicode="4" horiz-adv-x="1579" d="M41 350v62q0 14 10 24l1110 1000q10 10 25 10h67q21 0 21 -21v-1013h223q21 0 21 -21v-41q0 -20 -21 -20h-223v-310q0 -20 -21 -20h-41q-20 0 -20 20v310h-1131q-20 0 -20 20zM147 412h1045v942z" />
<glyph unicode="5" horiz-adv-x="1488" d="M72 467q0 20 20 20h41q21 0 21 -20q3 -233 82 -309q82 -76 321 -76h363q229 0 311 76q84 78 84 309q0 184 -88 254q-90 72 -307 72h-787q-23 0 -20 20l61 614q3 19 23 19h1093q21 0 21 -21v-41q0 -20 -21 -20h-1040l-49 -490h719q253 0 365 -94t112 -313 q0 -264 -107 -365q-105 -102 -370 -102h-363q-276 0 -379 100q-103 103 -106 367z" />
<glyph unicode="6" horiz-adv-x="1546" d="M92 494v18q0 143 37 227q39 92 172 234l430 463q10 10 25 10h63q12 0 15.5 -7t-3.5 -18l-464 -497q104 49 387 49h137q132 0 229.5 -20.5t161.5 -57.5t102.5 -95.5t54 -127.5t15.5 -160v-18q0 -270 -119 -383q-120 -111 -444 -111h-236q-324 0 -444 111 q-119 113 -119 383zM174 494q0 -241 96 -328q101 -84 385 -84h236q287 0 383 84q98 85 98 328v18q0 202 -102 291q-101 88 -379 88h-236q-280 0 -381 -88q-100 -87 -100 -291v-18z" />
<glyph unicode="7" horiz-adv-x="1404" d="M61 1384v41q0 21 21 21h1241q20 0 20 -21v-47q0 -18 -8 -26l-954 -1340q-9 -12 -25 -12h-53q-12 0 -16 9t4 16l952 1339h-1161q-21 0 -21 20z" />
<glyph unicode="8" horiz-adv-x="1454" d="M82 367v18q0 175 82 254q70 63 147 86q-45 14 -74 30.5t-67 51.5q-78 72 -78 244v20q0 198 114.5 286.5t373.5 88.5h294q259 0 373.5 -88.5t114.5 -286.5v-20q0 -172 -78 -244q-38 -35 -67 -51.5t-74 -30.5q46 -14 77 -32t68 -54q84 -75 84 -254v-18q0 -197 -112 -282 t-371 -85h-324q-259 0 -371 85t-112 282zM164 367q0 -157 86 -222q86 -63 315 -63h324q229 0 313 63q88 64 88 222v18q0 153 -78 225t-247 72h-476q-169 0 -247 -72t-78 -225v-18zM174 1051q0 -149 73.5 -217t241.5 -68h476q168 0 241.5 68t73.5 217v20q0 161 -90 227 t-316 66h-294q-226 0 -316 -66t-90 -227v-20z" />
<glyph unicode="9" horiz-adv-x="1546" d="M92 934v18q0 271 119 381q119 113 444 113h236q325 0 444 -113q119 -110 119 -381v-18q0 -142 -37 -229q-40 -91 -172 -232l-430 -463q-10 -10 -24 -10h-64q-12 0 -15.5 7t3.5 18l465 497q-104 -49 -387 -49h-138q-132 0 -229.5 20.5t-161.5 57.5t-102.5 95.5t-54 127.5 t-15.5 160zM174 934q0 -204 100 -291q101 -88 381 -88h236q278 0 379 88q102 89 102 291v18q0 244 -98 326q-95 86 -383 86h-236q-285 0 -385 -86q-96 -84 -96 -326v-18z" />
<glyph unicode=":" horiz-adv-x="339" d="M129 20v256q0 21 21 21h40q21 0 21 -21v-256q0 -20 -21 -20h-40q-21 0 -21 20zM129 874v256q0 21 21 21h40q21 0 21 -21v-256q0 -20 -21 -20h-40q-21 0 -21 20z" />
<glyph unicode=";" horiz-adv-x="407" d="M12 -305l176 622q7 17 23 17h61q11 0 15.5 -6.5t1.5 -16.5l-209 -622q-7 -17 -25 -17h-24q-26 0 -19 23zM193 874v256q0 21 20 21h41q20 0 20 -21v-256q0 -20 -20 -20h-41q-20 0 -20 20z" />
<glyph unicode="&#x3c;" horiz-adv-x="907" d="M88 692v37q0 17 14 25l697 417q24 15 24 -14v-47q0 -17 -14 -25l-623 -374l623 -373q14 -8 14 -25v-49q0 -29 -24 -14l-697 418q-14 8 -14 24z" />
<glyph unicode="=" horiz-adv-x="1120" d="M86 520v41q0 21 20 21h908q20 0 20 -21v-41q0 -20 -20 -20h-908q-20 0 -20 20zM86 887v41q0 20 20 20h908q20 0 20 -20v-41q0 -21 -20 -21h-908q-20 0 -20 21z" />
<glyph unicode="&#x3e;" horiz-adv-x="907" d="M88 264v49q0 17 14 25l623 373l-623 374q-14 8 -14 25v47q0 30 25 14l696 -417q14 -8 14 -25v-37q0 -16 -14 -24l-696 -418q-25 -16 -25 14z" />
<glyph unicode="?" horiz-adv-x="1509" d="M61 868v78q0 138 19.5 223t69.5 150q54 67 149 97t248 30h416q260 0 372.5 -86t112.5 -270q0 -191 -105 -283q-52 -43 -99.5 -69t-125.5 -56l-233 -88q-92 -36 -115 -62q-24 -24 -27 -86q0 -20 -20 -20h-41q-20 0 -20 20q5 87 46.5 135.5t145.5 86.5l229 86 q165 62 222 125q61 64 61 211q0 154 -90 213q-88 61 -313 61h-416q-240 0 -324 -84q-80 -83 -80 -334v-78q0 -20 -20 -20h-41q-21 0 -21 20zM662 20v256q0 21 20 21h41q20 0 20 -21v-256q0 -20 -20 -20h-41q-20 0 -20 20z" />
<glyph unicode="@" horiz-adv-x="1714" d="M102 498v448q0 245 105 371q108 129 381 129h538q274 0 379 -129q107 -125 107 -371v-301q0 -187 -81.5 -270.5t-256.5 -83.5h-62q-20 0 -20 20v154q-25 -92 -104 -133t-238 -41h-41q-246 0 -330 102q-41 54 -57 123t-16 182v35q0 226 79 320q82 94 324 94h41 q160 0 238.5 -41.5t103.5 -134.5v155q0 21 20 21h41q21 0 21 -21v-757q139 0 196 51q60 54 60 225v301q0 227 -92 322.5t-312 95.5h-538q-220 0 -312 -95.5t-92 -322.5v-448q0 -227 91.5 -321.5t312.5 -94.5h827q21 0 21 -21v-41q0 -20 -21 -20h-827q-272 0 -381 127 q-105 129 -105 371zM487 698q0 -198 64 -262q63 -63 258 -63h61q172 0 246 65q76 64 76 260v35q0 201 -74 266q-75 66 -248 66h-61q-194 0 -260 -66q-62 -65 -62 -266v-35z" />
<glyph unicode="A" d="M29 25l778 1407q6 14 24 14h46q18 0 24 -14l772 -1407q16 -25 -14 -25h-49q-19 0 -25 14l-162 295h-1142l-164 -295q-8 -14 -25 -14h-49q-30 0 -14 25zM326 391h1052l-524 952z" />
<glyph unicode="B" horiz-adv-x="1517" d="M129 20v1405q0 21 21 21h778q259 0 373 -88.5t114 -286.5v-20q0 -172 -78 -244q-38 -35 -67 -51.5t-74 -30.5q46 -14 77 -32t68 -54q84 -75 84 -254v-18q0 -197 -112 -282t-371 -85h-792q-21 0 -21 20zM211 82h731q229 0 313 63q88 64 88 222v18q0 153 -78 226t-247 73 h-807v-602zM211 766h807q168 0 241.5 68t73.5 217v20q0 161 -89.5 227t-315.5 66h-717v-598z" />
<glyph unicode="C" horiz-adv-x="1611" d="M102 498v448q0 258 109 379t377 121h456q268 0 377 -121t109 -379v-37q0 -20 -21 -20h-41q-20 0 -20 20v37q0 238 -88 326q-89 92 -316 92h-456q-227 0 -316 -92q-88 -88 -88 -326v-448q0 -235 88 -326q90 -90 316 -90h456q226 0 316 90q88 91 88 326v59q0 21 20 21h41 q21 0 21 -21v-59q0 -258 -109 -379q-107 -119 -377 -119h-456q-270 0 -377 119q-109 121 -109 379z" />
<glyph unicode="D" horiz-adv-x="1630" d="M129 20v1405q0 21 21 21h894q272 0 377 -123q107 -122 107 -420v-368q0 -297 -107 -416q-104 -119 -377 -119h-894q-21 0 -21 20zM211 82h833q236 0 318 94q84 96 84 359v368q0 267 -84 363q-82 98 -318 98h-833v-1282z" />
<glyph unicode="E" horiz-adv-x="1427" d="M129 20v1405q0 21 21 21h1181q21 0 21 -21v-41q0 -20 -21 -20h-1120v-578h807q20 0 20 -20v-41q0 -20 -20 -20h-807v-623h1120q21 0 21 -21v-41q0 -20 -21 -20h-1181q-21 0 -21 20z" />
<glyph unicode="F" horiz-adv-x="1359" d="M129 20v1405q0 21 21 21h1148q21 0 21 -21v-41q0 -20 -21 -20h-1087v-578h782q21 0 21 -20v-41q0 -20 -21 -20h-782v-685q0 -20 -21 -20h-40q-21 0 -21 20z" />
<glyph unicode="G" horiz-adv-x="1615" d="M86 498v448q0 258 109 379t376 121h457q265 0 373 -111q109 -109 112 -356q0 -21 -20 -21h-41q-20 0 -20 21q-3 219 -91 301q-90 84 -313 84h-457q-226 0 -315 -92q-88 -88 -88 -326v-448q0 -235 88 -326q90 -90 315 -90h457q225 0 315 90q89 92 89 326v108h-586 q-21 0 -21 21v41q0 20 21 20h647q20 0 20 -20v-170q0 -259 -108 -379q-107 -119 -377 -119h-457q-269 0 -376 119q-109 121 -109 379z" />
<glyph unicode="H" horiz-adv-x="1560" d="M129 20v1405q0 21 21 21h40q21 0 21 -21v-639h1139v639q0 21 20 21h41q21 0 21 -21v-1405q0 -20 -21 -20h-41q-20 0 -20 20v685h-1139v-685q0 -20 -21 -20h-40q-21 0 -21 20z" />
<glyph unicode="I" horiz-adv-x="339" d="M129 20v1405q0 21 21 21h40q21 0 21 -21v-1405q0 -20 -21 -20h-40q-21 0 -21 20z" />
<glyph unicode="J" horiz-adv-x="1529" d="M102 498v125q0 20 21 20h41q20 0 20 -20v-125q0 -235 88 -326q90 -90 316 -90h354q225 0 315 90q89 92 89 326v927q0 21 20 21h41q20 0 20 -21v-927q0 -259 -108 -379q-107 -119 -377 -119h-354q-270 0 -377 119q-109 121 -109 379z" />
<glyph unicode="K" horiz-adv-x="1484" d="M129 20v1405q0 21 21 21h40q21 0 21 -21v-657h414l714 668q10 10 25 10h63q14 0 17.5 -7t-6.5 -18l-740 -694l740 -702q10 -11 6.5 -18t-17.5 -7h-61q-15 0 -25 10l-716 676h-414v-666q0 -20 -21 -20h-40q-21 0 -21 20z" />
<glyph unicode="L" horiz-adv-x="1327" d="M129 20v1405q0 21 21 21h40q21 0 21 -21v-1343h1071q21 0 21 -21v-41q0 -20 -21 -20h-1132q-21 0 -21 20z" />
<glyph unicode="M" horiz-adv-x="1832" d="M129 20v1405q0 21 21 21h49q16 0 24 -14l695 -1084l696 1084q8 14 24 14h45q21 0 21 -21v-1405q0 -20 -21 -20h-41q-20 0 -20 20v1285l-655 -1020q-9 -15 -25 -15h-49q-16 0 -25 15l-657 1028v-1293q0 -20 -21 -20h-40q-21 0 -21 20z" />
<glyph unicode="N" horiz-adv-x="1576" d="M129 20v1405q0 21 21 21h59q15 0 24 -12l1133 -1338v1329q0 21 20 21h41q21 0 21 -21v-1405q0 -20 -21 -20h-67q-16 0 -25 12l-1124 1327v-1319q0 -20 -21 -20h-40q-21 0 -21 20z" />
<glyph unicode="O" d="M102 498v448q0 258 109 379t377 121h497q268 0 377 -121t109 -379v-448q0 -258 -109 -379q-107 -119 -377 -119h-497q-270 0 -377 119q-109 121 -109 379zM184 498q0 -235 88 -326q90 -90 316 -90h497q226 0 316 90q88 91 88 326v448q0 238 -88 326q-89 92 -316 92h-497 q-227 0 -316 -92q-88 -88 -88 -326v-448z" />
<glyph unicode="P" horiz-adv-x="1540" d="M129 20v1405q0 21 21 21h745q324 0 444 -105q119 -104 119 -364v-12q0 -260 -119 -361q-115 -100 -444 -100h-684v-484q0 -20 -21 -20h-40q-21 0 -21 20zM211 586h684q291 0 385 76q96 78 96 303v12q0 233 -98 309q-96 78 -383 78h-684v-778z" />
<glyph unicode="Q" d="M102 498v448q0 258 109 379t377 121h497q268 0 377 -121t109 -379v-448q0 -248 -97 -365.5t-325 -130.5l168 -242q6 -10 2 -17t-16 -7h-54q-15 0 -24 12l-174 252h-463q-270 0 -377 119q-109 121 -109 379zM184 498q0 -235 88 -326q90 -90 316 -90h497q226 0 316 90 q88 91 88 326v448q0 238 -88 326q-89 92 -316 92h-497q-227 0 -316 -92q-88 -88 -88 -326v-448z" />
<glyph unicode="R" horiz-adv-x="1540" d="M129 20v1405q0 21 21 21h745q324 0 444 -105q119 -104 119 -364v-12q0 -220 -82 -324q-80 -103 -293 -127l344 -489q8 -7 4 -16t-16 -9h-53q-16 0 -25 12l-348 494q-20 -2 -94 -2h-684v-484q0 -20 -21 -20h-40q-21 0 -21 20zM211 586h684q291 0 385 76q96 78 96 303v12 q0 233 -98 309q-96 78 -383 78h-684v-778z" />
<glyph unicode="S" horiz-adv-x="1529" d="M82 467q0 20 20 20h41q21 0 21 -20q3 -225 86 -305q86 -80 317 -80h375q248 0 334 63q90 66 90 242q0 155 -82 207q-83 56 -299 74l-438 37q-251 21 -354 92q-101 73 -101 264q0 207 111 295q113 90 395 90h344q271 0 375 -107q107 -104 110 -360q0 -21 -20 -21h-41 q-20 0 -20 21q-3 225 -89 305q-83 80 -315 80h-344q-248 0 -336 -64t-88 -239q0 -153 78 -207q80 -50 301 -68l438 -36q248 -21 352 -97q105 -77 105 -266q0 -211 -111 -299q-110 -88 -395 -88h-375q-270 0 -377 104q-105 108 -108 363z" />
<glyph unicode="T" horiz-adv-x="1341" d="M35 1384v41q0 21 20 21h1231q21 0 21 -21v-41q0 -20 -21 -20h-573v-1344q0 -20 -21 -20h-41q-20 0 -20 20v1344h-576q-20 0 -20 20z" />
<glyph unicode="U" horiz-adv-x="1660" d="M137 498v927q0 21 21 21h41q20 0 20 -21v-927q0 -235 88 -326q90 -90 316 -90h415q226 0 316 90q88 91 88 326v927q0 21 20 21h41q21 0 21 -21v-927q0 -258 -109 -379q-107 -119 -377 -119h-415q-270 0 -377 119q-109 121 -109 379z" />
<glyph unicode="V" horiz-adv-x="1591" d="M23 1421q-9 25 14 25h51q19 0 25 -14l696 -1330l690 1330q6 14 25 14h51q23 0 14 -25l-733 -1407q-6 -14 -25 -14h-45q-18 0 -24 14z" />
<glyph unicode="W" horiz-adv-x="2121" d="M-6 1423q-7 23 16 23h43q19 0 25 -16l459 -1309l477 1309q6 16 24 16h58q18 0 24 -16l477 -1309l459 1309q6 16 25 16h43q23 0 16 -23l-495 -1407q-6 -16 -25 -16h-47q-19 0 -25 16l-481 1317l-481 -1317q-6 -16 -25 -16h-47q-19 0 -25 16z" />
<glyph unicode="X" horiz-adv-x="1361" d="M-19 9q-3 9 5 16l645 733l-586 663q-8 7 -5 16t15 9h60q15 0 24 -12l547 -615l545 615q9 12 24 12h60q12 0 15 -9t-5 -16l-586 -663l645 -733q8 -7 5 -16t-15 -9h-61q-16 0 -25 12l-602 682l-604 -682q-9 -12 -25 -12h-61q-12 0 -15 9z" />
<glyph unicode="Y" horiz-adv-x="1521" d="M-22 1437q4 9 16 9h53q16 0 25 -12l702 -963l686 963q9 12 25 12h51q12 0 16 -9t-4 -16l-733 -1030v-371q0 -20 -20 -20h-41q-21 0 -21 20v369l-751 1032q-8 7 -4 16z" />
<glyph unicode="Z" horiz-adv-x="1447" d="M61 20v48q0 13 11 24l1202 1272h-1192q-21 0 -21 20v41q0 21 21 21h1284q20 0 20 -21v-47q0 -14 -10 -24l-1204 -1272h1194q20 0 20 -21v-41q0 -20 -20 -20h-1284q-21 0 -21 20z" />
<glyph unicode="[" horiz-adv-x="565" d="M129 -84v1618q0 20 21 20h329q21 0 21 -20v-41q0 -20 -21 -20h-268v-1496h268q21 0 21 -20v-41q0 -20 -21 -20h-329q-21 0 -21 20z" />
<glyph unicode="\" horiz-adv-x="526" d="M45 1423q-7 23 18 23h37q20 0 23 -19l373 -1404q7 -23 -19 -23h-37q-19 0 -22 18z" />
<glyph unicode="]" horiz-adv-x="563" d="M66 -43q0 20 20 20h268v1496h-268q-20 0 -20 20v41q0 20 20 20h330q20 0 20 -20v-1618q0 -20 -20 -20h-330q-20 0 -20 20v41z" />
<glyph unicode="^" horiz-adv-x="1021" d="M81 725.5q-5 6.5 1 17.5l375 689q6 14 24 14h62q18 0 24 -14l379 -689q15 -24 -14 -24h-51q-19 0 -25 14l-344 635l-338 -635q-6 -14 -24 -14h-52q-12 0 -17 6.5z" />
<glyph unicode="_" horiz-adv-x="1075" d="M66 -322q0 21 20 21h903q21 0 21 -21v-40q0 -21 -21 -21h-903q-20 0 -20 21v40z" />
<glyph unicode="`" horiz-adv-x="1142" d="M432 1421q-16 25 14 25h60q16 0 22 -16l90 -220q9 -24 -16 -24h-24q-19 0 -25 14z" />
<glyph unicode="a" horiz-adv-x="1286" d="M51 307q0 157 82.5 232t284.5 98l618 70q66 9 66 63q0 170 -60 236q-57 63 -249 63h-629q-21 0 -21 21v40q0 21 21 21h629q215 0 303 -78t88 -260v-793q0 -20 -21 -20h-41q-20 0 -20 20v199q-35 -116 -117 -168q-80 -51 -270 -51h-234q-210 0 -320 77.5t-110 229.5z M133 307q0 -225 348 -225h234q219 0 301 88q86 89 86 307v156l-676 -78q-177 -21 -236 -74q-57 -51 -57 -174z" />
<glyph unicode="b" horiz-adv-x="1394" d="M117 20v1514q0 20 20 20h41q21 0 21 -20v-573q26 103 108 146.5t254 43.5h318q137 0 220 -25t126 -84q44 -59 61 -137t17 -209v-247q0 -127 -17 -204t-61 -136q-43 -59 -126 -84t-220 -25h-318q-171 0 -253 44.5t-109 145.5v-170q0 -20 -21 -20h-41q-20 0 -20 20z M199 449q0 -231 84 -304q46 -36 104 -49.5t154 -13.5h338q212 0 276 70q66 72 66 297v247q0 229 -66 301t-276 72h-338q-100 0 -157.5 -14t-100.5 -51q-84 -73 -84 -308v-247z" />
<glyph unicode="c" horiz-adv-x="1341" d="M92 455v247q0 127 17 204t61 136q43 59 126 84t220 25h340q249 0 334 -94q87 -93 90 -344q0 -21 -20 -21h-41q-21 0 -21 21q-3 220 -68 288t-274 68h-340q-210 0 -276 -72t-66 -295v-247q0 -233 64 -303t278 -70h340q212 0 277 68q62 68 65 292q0 21 21 21h41 q20 0 20 -21q-3 -258 -92 -350q-86 -92 -332 -92h-340q-137 0 -220 25t-126 84q-44 59 -61 137t-17 209z" />
<glyph unicode="d" horiz-adv-x="1394" d="M92 449v247q0 131 17 209t61 137q43 59 126 84t220 25h318q172 0 254 -43.5t108 -146.5v573q0 20 21 20h40q21 0 21 -20v-1514q0 -20 -21 -20h-40q-21 0 -21 20v170q-27 -101 -109 -145.5t-253 -44.5h-318q-137 0 -220 25t-126 84q-44 59 -61 136t-17 204zM174 449 q0 -225 66 -297q64 -70 276 -70h338q97 0 155 13.5t101 49.5q46 37 66 110.5t20 193.5v247q0 235 -84 308q-43 37 -100.5 51t-157.5 14h-338q-212 0 -278 -72q-64 -70 -64 -301v-247z" />
<glyph unicode="e" horiz-adv-x="1300" d="M92 455v247q0 127 17 204t61 136q43 59 126 84t220 25h289q137 0 220 -25t126 -84q44 -59 61 -136t17 -204v-167q0 -21 -21 -21h-1034v-59q0 -233 64 -303t278 -70h600q21 0 21 -21v-41q0 -20 -21 -20h-600q-137 0 -220 25t-126 84q-44 59 -61 137t-17 209zM174 596h973 v106q0 223 -66 295t-276 72h-289q-210 0 -276 -72t-66 -295v-106z" />
<glyph unicode="f" horiz-adv-x="827" d="M20 1090v40q0 21 21 21h190q0 125 15 194t57 119q43 50 121.5 70t212.5 20h129q20 0 20 -20v-41q0 -20 -20 -20h-129q-208 0 -266 -58q-58 -55 -58 -264h453q20 0 20 -21v-40q0 -21 -20 -21h-453v-1049q0 -20 -20 -20h-41q-21 0 -21 20v1049h-190q-21 0 -21 21z" />
<glyph unicode="g" horiz-adv-x="1394" d="M92 455v247q0 127 17 204t61 136q43 59 126 84t220 25h318q171 0 253 -44.5t109 -145.5v169q0 21 21 21h40q21 0 21 -21v-1079q0 -229 -90 -342q-87 -112 -342 -112h-596q-21 0 -21 20v41q0 20 21 20h596q206 0 278 84t72 289v139q-26 -103 -108 -146.5t-254 -43.5h-318 q-137 0 -220 25t-126 84q-44 59 -61 137t-17 209zM174 455q0 -233 64 -303t278 -70h338q100 0 157.5 14t100.5 51q84 73 84 308v247q0 120 -20 193t-66 109q-43 37 -101 51t-155 14h-338q-210 0 -276 -72t-66 -295v-247z" />
<glyph unicode="h" horiz-adv-x="1366" d="M119 20v1514q0 20 20 20h41q21 0 21 -20v-573q26 103 108 146.5t254 43.5h277q137 0 220 -25t126 -84q44 -59 61 -137t17 -209v-678q0 -20 -21 -20h-41q-20 0 -20 20v678q0 229 -66 301t-276 72h-297q-100 0 -157.5 -14t-100.5 -51q-84 -73 -84 -308v-676q0 -20 -21 -20 h-41q-20 0 -20 20z" />
<glyph unicode="i" horiz-adv-x="315" d="M117 20v1110q0 21 20 21h41q21 0 21 -21v-1110q0 -20 -21 -20h-41q-20 0 -20 20zM117 1298v236q0 20 20 20h41q21 0 21 -20v-236q0 -20 -21 -20h-41q-20 0 -20 20z" />
<glyph unicode="j" horiz-adv-x="315" d="M117 -383v1513q0 21 20 21h41q21 0 21 -21v-1513q0 -20 -21 -20h-41q-20 0 -20 20zM117 1298v236q0 20 20 20h41q21 0 21 -20v-236q0 -20 -21 -20h-41q-20 0 -20 20z" />
<glyph unicode="k" horiz-adv-x="1228" d="M129 20v1514q0 20 21 20h40q21 0 21 -20v-918h332l561 525q10 10 24 10h64q14 0 17 -7.5t-7 -17.5l-586 -551l580 -550q10 -11 7 -18t-17 -7h-62q-14 0 -24 10l-557 525h-332v-515q0 -20 -21 -20h-40q-21 0 -21 20z" />
<glyph unicode="l" horiz-adv-x="315" d="M117 20v1514q0 20 20 20h41q21 0 21 -20v-1514q0 -20 -21 -20h-41q-20 0 -20 20z" />
<glyph unicode="m" horiz-adv-x="1943" d="M117 20v1110q0 21 20 21h41q21 0 21 -21v-169q26 103 108 146.5t254 43.5h35q190 0 282 -53.5t123 -179.5q24 126 108.5 179.5t272.5 53.5h35q137 0 220 -25t126 -84q44 -59 61 -137t17 -209v-678q0 -20 -20 -20h-41q-21 0 -21 20v678q0 230 -65 301q-66 72 -277 72h-55 q-100 0 -157.5 -14t-100.5 -51q-84 -73 -84 -308v-678q0 -20 -21 -20h-41q-20 0 -20 20v678q0 229 -66 301t-276 72h-55q-100 0 -157.5 -14t-100.5 -51q-84 -73 -84 -308v-676q0 -20 -21 -20h-41q-20 0 -20 20z" />
<glyph unicode="n" horiz-adv-x="1363" d="M117 20v1110q0 21 20 21h41q21 0 21 -21v-169q26 103 108 146.5t254 43.5h277q137 0 220 -25t126 -84q44 -59 61 -137t17 -209v-678q0 -20 -21 -20h-41q-20 0 -20 20v678q0 229 -66 301t-276 72h-297q-100 0 -157.5 -14t-100.5 -51q-84 -73 -84 -308v-676q0 -20 -21 -20 h-41q-20 0 -20 20z" />
<glyph unicode="o" horiz-adv-x="1372" d="M92 455v247q0 127 17 204t61 136q43 59 126 84t220 25h340q137 0 220 -25t126 -84q44 -59 61 -136t17 -204v-247q0 -131 -17 -209t-61 -137q-43 -59 -126 -84t-220 -25h-340q-137 0 -220 25t-126 84q-44 59 -61 137t-17 209zM174 455q0 -233 64 -303t278 -70h340 q213 0 277 70q65 71 65 303v247q0 224 -65 295q-66 72 -277 72h-340q-210 0 -276 -72t-66 -295v-247z" />
<glyph unicode="p" horiz-adv-x="1394" d="M117 -383v1513q0 21 20 21h41q21 0 21 -21v-169q27 101 109 145.5t253 44.5h318q137 0 220 -25t126 -84q44 -59 61 -136t17 -204v-247q0 -131 -17 -209t-61 -137q-43 -59 -126 -84t-220 -25h-318q-172 0 -254 43.5t-108 146.5v-573q0 -20 -21 -20h-41q-20 0 -20 20z M199 455q0 -235 84 -308q43 -37 100.5 -51t157.5 -14h338q212 0 276 70q66 72 66 303v247q0 223 -66 295t-276 72h-338q-97 0 -154.5 -14t-103.5 -51q-84 -70 -84 -302v-247z" />
<glyph unicode="q" horiz-adv-x="1394" d="M92 455v247q0 127 17 204t61 136q43 59 126 84t220 25h318q171 0 253 -44.5t109 -145.5v169q0 21 21 21h40q21 0 21 -21v-1513q0 -20 -21 -20h-40q-21 0 -21 20v573q-26 -103 -108 -146.5t-254 -43.5h-318q-137 0 -220 25t-126 84q-44 59 -61 137t-17 209zM174 455 q0 -233 64 -303t278 -70h338q100 0 157.5 14t100.5 51q84 73 84 308v247q0 120 -20 193t-66 109q-43 37 -101 51t-155 14h-338q-210 0 -276 -72t-66 -295v-247z" />
<glyph unicode="r" horiz-adv-x="843" d="M117 20v1110q0 21 20 21h41q21 0 21 -21v-169q26 103 108 146.5t254 43.5h242q20 0 20 -21v-40q0 -21 -20 -21h-262q-100 0 -157.5 -14t-100.5 -51q-84 -73 -84 -308v-676q0 -20 -21 -20h-41q-20 0 -20 20z" />
<glyph unicode="s" horiz-adv-x="1239" d="M82 856q0 155 97 225t315 70h602q20 0 20 -21v-40q0 -21 -20 -21h-602q-186 0 -258 -48t-72 -165q0 -114 49 -160q53 -44 217 -59l381 -37q217 -21 291 -92q76 -70 76 -219q0 -158 -97.5 -223.5t-332.5 -65.5h-621q-21 0 -21 20v41q0 21 21 21h621q208 0 276 45 q72 47 72 162q0 118 -58 164q-56 47 -235 65l-381 37q-199 21 -270 86q-70 64 -70 215z" />
<glyph unicode="t" horiz-adv-x="950" d="M20 1090v40q0 21 21 21h88q28 1 58 12.5t38 22.5q11 14 19 49q10 51 10 188q0 23 20 23h19q20 0 20 -21v-274h555q21 0 21 -21v-40q0 -21 -21 -21h-555v-635q0 -205 76 -278q77 -74 297 -74h182q21 0 21 -21v-41q0 -20 -21 -20h-182q-266 0 -360 102q-95 103 -95 332v635 h-190q-21 0 -21 21z" />
<glyph unicode="u" horiz-adv-x="1357" d="M117 453v677q0 21 20 21h41q21 0 21 -21v-677q0 -234 63 -303q64 -70 279 -70h276q100 0 157.5 14t100.5 51q84 73 84 308v675q0 21 21 21h41q20 0 20 -21v-1110q0 -20 -20 -20h-41q-21 0 -21 20v170q-26 -103 -108 -146.5t-254 -43.5h-256q-137 0 -220 24.5t-126 83.5 q-44 59 -61 137.5t-17 209.5z" />
<glyph unicode="v" horiz-adv-x="1374" d="M29 1126q-16 25 14 25h49q19 0 25 -14l583 -1059l584 1059q6 14 25 14h51q30 0 14 -25l-618 -1112q-8 -14 -25 -14h-61q-17 0 -25 14z" />
<glyph unicode="w" horiz-adv-x="1951" d="M20 1126q-9 25 17 25h47q16 0 22 -16l443 -1059l387 1059q6 16 25 16h49q18 0 24 -16l389 -1059l443 1059q6 16 22 16h47q26 0 17 -25l-475 -1110q-6 -16 -23 -16h-68q-16 0 -22 16l-379 1014l-379 -1014q-6 -16 -22 -16h-68q-16 0 -22 16z" />
<glyph unicode="x" horiz-adv-x="1189" d="M2.5 7q-3.5 7 3.5 18l537 573l-494 528q-22 25 10 25h66q15 0 25 -10l450 -482l449 482q10 10 24 10h66q12 0 15.5 -7.5t-3.5 -17.5l-494 -528l535 -573q7 -11 3.5 -18t-15.5 -7h-66q-14 0 -24 10l-490 527l-491 -527q-10 -10 -25 -10h-66q-12 0 -15.5 7z" />
<glyph unicode="y" horiz-adv-x="1394" d="M133 453v677q0 21 21 21h41q20 0 20 -21v-677q0 -233 64 -303t278 -70h297q100 0 157.5 14t100.5 51q84 73 84 308v675q0 21 21 21h40q21 0 21 -21v-1077q0 -229 -90 -342q-87 -112 -342 -112h-596q-21 0 -21 20v41q0 20 21 20h596q206 0 278 84t72 289v137 q-26 -103 -108 -146.5t-254 -43.5h-277q-137 0 -220 24.5t-126 83.5q-44 59 -61 137.5t-17 209.5z" />
<glyph unicode="z" horiz-adv-x="1187" d="M61 20v48q0 13 11 24l942 977h-932q-21 0 -21 21v40q0 21 21 21h1024q20 0 20 -21v-47q0 -14 -10 -24l-940 -977h930q20 0 20 -21v-41q0 -20 -20 -20h-1024q-21 0 -21 20z" />
<glyph unicode="{" horiz-adv-x="673" d="M45 705v40q0 21 21 21q64 1 86 20t22 68v231q0 140 13.5 215t54.5 136q42 62 124.5 89t221.5 29q20 0 20 -20v-41q0 -20 -20 -20q-118 -2 -181 -19t-98 -65q-33 -47 -43 -109.5t-10 -194.5v-204q0 -76 -20.5 -113t-75.5 -43q96 -12 96 -164v-201q0 -132 9.5 -194 t43.5 -109q35 -48 98 -65t181 -19q20 0 20 -20v-41q0 -21 -20 -21q-139 2 -221.5 29.5t-124.5 89.5q-41 61 -54.5 135.5t-13.5 214.5v236q0 49 -22 68t-86 20q-21 0 -21 21z" />
<glyph unicode="|" horiz-adv-x="299" d="M109 -84v1618q0 20 20 20h41q20 0 20 -20v-1618q0 -20 -20 -20h-41q-20 0 -20 20z" />
<glyph unicode="}" horiz-adv-x="673" d="M66 -47q0 20 20 20q118 2 180 19t96 65q35 47 45.5 109.5t10.5 193.5v201q0 152 96 164q-55 6 -75.5 43t-20.5 113v204q0 131 -10.5 194t-45.5 110q-34 48 -96 65t-180 19q-20 0 -20 20v41q0 20 20 20q139 -2 221.5 -29t124.5 -89q41 -61 54.5 -136t13.5 -215v-231 q0 -49 22 -68t86 -20q21 0 21 -21v-40q0 -21 -21 -21q-64 -1 -86 -20t-22 -68v-236q0 -140 -13.5 -214.5t-54.5 -135.5q-42 -62 -124.5 -89.5t-221.5 -29.5q-20 0 -20 21v41z" />
<glyph unicode="&#xa1;" horiz-adv-x="348" d="M129 20v248l18 729q0 21 21 21h12q21 0 21 -21l18 -729v-248q0 -20 -20 -20h-49q-21 0 -21 20zM133 1169v256q0 21 21 21h41q20 0 20 -21v-256q0 -20 -20 -20h-41q-21 0 -21 20z" />
<glyph unicode="&#xa2;" horiz-adv-x="1341" d="M92 455v247q0 127 17 204t61 136q43 59 126 84t220 25h131v125q0 20 21 20h41q20 0 20 -20v-125h127q249 0 334 -94q87 -93 90 -344q0 -21 -20 -21h-41q-21 0 -21 21q-3 220 -68 288t-274 68h-127v-987h127q212 0 277 68q62 68 65 292q0 21 21 21h41q20 0 20 -21 q-3 -258 -92 -350q-86 -92 -332 -92h-127v-125q0 -20 -20 -20h-41q-21 0 -21 20v125h-131q-137 0 -220 25t-126 84q-44 59 -61 137t-17 209zM174 455q0 -233 64 -303t278 -70h131v987h-131q-210 0 -276 -72t-66 -295v-247z" />
<glyph unicode="&#xa3;" horiz-adv-x="1525" d="M61 20v41q0 21 21 21h629l-295 459l-60 94h-274q-21 0 -21 20v41q0 21 21 21h227q-90 172 -90 350q0 176 111.5 277.5t333.5 101.5h315q255 0 370 -127t115 -373v-78q0 -20 -20 -20h-41q-21 0 -21 20v78q0 220 -95 319t-308 99h-315q-363 0 -363 -297q0 -169 102 -350 h617q20 0 20 -21v-41q0 -20 -20 -20h-565q1 -3 7 -13t14 -22.5t11 -17.5l322 -500h635q20 0 20 -21v-41q0 -20 -20 -20h-1362q-21 0 -21 20z" />
<glyph unicode="&#xa5;" horiz-adv-x="1521" d="M-22 1437q4 9 16 9h53q16 0 25 -12l702 -963l686 963q9 12 25 12h51q12 0 16 -9t-4 -16l-415 -583h321q21 0 21 -21v-41q0 -20 -21 -20h-379l-260 -365v-371q0 -20 -20 -20h-41q-21 0 -21 20v369l-266 367h-377q-20 0 -20 20v41q0 21 20 21h316l-424 583q-8 7 -4 16z" />
<glyph unicode="&#xa6;" horiz-adv-x="299" d="M109 -84v682q0 20 20 20h41q20 0 20 -20v-682q0 -20 -20 -20h-41q-20 0 -20 20zM109 862v672q0 20 20 20h41q20 0 20 -20v-672q0 -20 -20 -20h-41q-20 0 -20 20z" />
<glyph unicode="&#xa8;" horiz-adv-x="1142" d="M377 1202v223q0 21 20 21h41q21 0 21 -21v-223q0 -20 -21 -20h-41q-20 0 -20 20zM686 1202v223q0 21 21 21h41q20 0 20 -21v-223q0 -20 -20 -20h-41q-21 0 -21 20z" />
<glyph unicode="&#xa9;" horiz-adv-x="1714" d="M102 498v448q0 245 105 371q108 129 381 129h538q274 0 379 -129q107 -125 107 -371v-448q0 -243 -107 -371q-106 -127 -379 -127h-538q-272 0 -381 127q-105 129 -105 371zM184 498q0 -227 91.5 -321.5t312.5 -94.5h538q221 0 312.5 94.5t91.5 321.5v448 q0 227 -92 322.5t-312 95.5h-538q-220 0 -312 -95.5t-92 -322.5v-448zM418 594v254q0 317 299 317h282q154 0 224 -75.5t75 -241.5q0 -21 -20 -21h-41q-20 0 -20 21q-5 131 -52.5 183t-165.5 52h-282q-117 0 -167 -54t-50 -181v-254q0 -131 49.5 -186.5t167.5 -55.5h282 q117 0 165 53t53 183q0 20 20 20h41q20 0 20 -20q-5 -166 -75.5 -242t-223.5 -76h-282q-156 0 -227.5 81t-71.5 243z" />
<glyph unicode="&#xaa;" horiz-adv-x="1204" d="M51 684q0 155 80 229t287 101l536 69q66 9 66 64q0 123 -59 170t-250 47h-547q-21 0 -21 20v41q0 21 21 21h547q212 0 301.5 -62.5t89.5 -199.5v-787q0 -20 -21 -20h-41q-20 0 -20 20v199q-35 -116 -117 -168q-80 -51 -270 -51h-152q-210 0 -320 77.5t-110 229.5z M133 684q0 -225 348 -225h152q219 0 301 88q86 89 86 307v156l-594 -78q-175 -24 -236 -78q-57 -51 -57 -170z" />
<glyph unicode="&#xab;" horiz-adv-x="843" d="M84 571q-9 15 0 29l272 389q9 12 25 12h35q29 0 14 -24l-235 -391l235 -391q16 -25 -14 -25h-35q-16 0 -25 12zM408 571q-9 15 0 29l270 389q9 12 24 12h35q30 0 15 -24l-234 -391l234 -391q7 -12 3 -18.5t-18 -6.5h-35q-15 0 -24 12z" />
<glyph unicode="&#xad;" horiz-adv-x="684" d="M66 569v41q0 21 20 21h512q20 0 20 -21v-41q0 -20 -20 -20h-512q-20 0 -20 20z" />
<glyph unicode="&#xae;" horiz-adv-x="1714" d="M102 498v448q0 245 105 371q108 129 381 129h538q274 0 379 -129q107 -125 107 -371v-448q0 -243 -107 -371q-106 -127 -379 -127h-538q-272 0 -381 127q-105 129 -105 371zM184 498q0 -227 91.5 -321.5t312.5 -94.5h538q221 0 312.5 94.5t91.5 321.5v448 q0 227 -92 322.5t-312 95.5h-538q-220 0 -312 -95.5t-92 -322.5v-448zM477 313v811q0 21 21 21h442q210 0 281 -80q73 -76 73 -225v-13q0 -122 -57.5 -188.5t-200.5 -83.5l203 -238q8 -11 5 -17.5t-15 -6.5h-58q-15 0 -24 12l-211 246h-377v-238q0 -20 -20 -20h-41 q-21 0 -21 20zM559 633h381q166 0 219 47t53 147v13q0 119 -51 170q-53 53 -221 53h-381v-430z" />
<glyph unicode="&#xaf;" horiz-adv-x="1142" d="M274 1241v41q0 21 21 21h551q20 0 20 -21v-41q0 -20 -20 -20h-551q-21 0 -21 20z" />
<glyph unicode="&#xb0;" horiz-adv-x="837" d="M82 1128v27q0 152 76.5 228.5t244.5 76.5h33q168 0 244 -76.5t76 -228.5v-27q0 -156 -76 -232.5t-244 -76.5h-33q-168 0 -244.5 76.5t-76.5 232.5zM164 1128q0 -123 54.5 -175t184.5 -52h33q131 0 184.5 51.5t53.5 175.5v27q0 122 -54 172.5t-184 50.5h-33 q-130 0 -184.5 -50.5t-54.5 -172.5v-27z" />
<glyph unicode="&#xb4;" horiz-adv-x="1142" d="M559 1210l92 220q6 16 23 16h59q14 0 18 -6.5t-3 -18.5l-123 -221q-8 -14 -25 -14h-25q-25 0 -16 24z" />
<glyph unicode="&#xb6;" horiz-adv-x="716" d="M86 1085v119q0 129 49.5 185.5t145.5 56.5h309q20 0 20 -21v-1513q0 -21 -20 -21h-41q-21 0 -21 21v924h-247q-195 0 -195 249z" />
<glyph unicode="&#xb7;" horiz-adv-x="339" d="M129 469v256q0 20 21 20h40q21 0 21 -20v-256q0 -20 -21 -20h-40q-21 0 -21 20z" />
<glyph unicode="&#xb8;" horiz-adv-x="1142" d="M438 -350l129 383q6 16 25 16h22q23 0 17 -22l-92 -381q-3 -19 -23 -19h-61q-11 0 -15.5 6.5t-1.5 16.5z" />
<glyph unicode="&#xba;" horiz-adv-x="1290" d="M92 831v166q0 127 17 204t61 136q43 59 126 84t220 25h258q137 0 220 -25t126 -84q44 -59 61 -136t17 -204v-166q0 -131 -17 -209t-61 -137q-43 -59 -126 -83.5t-220 -24.5h-258q-137 0 -220 24.5t-126 83.5q-44 59 -61 137t-17 209zM174 831q0 -233 64 -303 q63 -69 278 -69h258q214 0 277 69q65 71 65 303v166q0 224 -65 295q-66 72 -277 72h-258q-210 0 -276 -72t-66 -295v-166z" />
<glyph unicode="&#xbb;" horiz-adv-x="843" d="M115 195l233 391l-233 391q-15 24 14 24h35q15 0 24 -12l271 -389q9 -14 0 -29l-271 -389q-9 -12 -24 -12h-35q-30 0 -14 25zM433 176.5q-4 6.5 3 18.5l236 391l-236 391q-15 24 15 24h34q16 0 25 -12l272 -389q9 -14 0 -29l-272 -389q-9 -12 -25 -12h-34q-14 0 -18 6.5z " />
<glyph unicode="&#xbf;" horiz-adv-x="1509" d="M61 356q0 195 105 281q51 45 97.5 70t127.5 57l234 88q90 35 114 59q24 27 27 88q0 21 20 21h41q21 0 21 -21q-5 -86 -47 -134.5t-146 -86.5l-229 -86q-159 -60 -223 -127q-60 -66 -60 -209q0 -152 90 -215q89 -59 314 -59h416q240 0 321 84q82 82 82 334v78q0 20 20 20 h41q21 0 21 -20v-78q0 -141 -19 -225.5t-71 -149.5q-51 -65 -146 -95t-249 -30h-416q-261 0 -373.5 86t-112.5 270zM766 1169v256q0 21 20 21h41q21 0 21 -21v-256q0 -20 -21 -20h-41q-20 0 -20 20z" />
<glyph unicode="&#xc0;" d="M29 25l778 1407q6 14 24 14h46q18 0 24 -14l772 -1407q16 -25 -14 -25h-49q-19 0 -25 14l-162 295h-1142l-164 -295q-8 -14 -25 -14h-49q-30 0 -14 25zM326 391h1052l-524 952zM688 1792q-16 25 14 25h60q15 0 22 -17l90 -219q9 -25 -16 -25h-24q-19 0 -25 15z" />
<glyph unicode="&#xc1;" d="M29 25l778 1407q6 14 24 14h46q18 0 24 -14l772 -1407q16 -25 -14 -25h-49q-19 0 -25 14l-162 295h-1142l-164 -295q-8 -14 -25 -14h-49q-30 0 -14 25zM326 391h1052l-524 952zM834 1581l92 219q7 17 22 17h60q30 0 14 -25l-123 -221q-9 -15 -25 -15h-24q-25 0 -16 25z " />
<glyph unicode="&#xc2;" d="M29 25l778 1407q6 14 24 14h46q18 0 24 -14l772 -1407q16 -25 -14 -25h-49q-19 0 -25 14l-162 295h-1142l-164 -295q-8 -14 -25 -14h-49q-30 0 -14 25zM326 391h1052l-524 952zM586 1561q-4 9 4 16l188 225q10 13 25 13h84q14 0 24 -13l189 -225q8 -7 3.5 -16t-16.5 -9 h-61q-15 0 -25 13l-155 190l-158 -190q-10 -13 -24 -13h-62q-12 0 -16 9z" />
<glyph unicode="&#xc3;" d="M29 25l778 1407q6 14 24 14h46q18 0 24 -14l772 -1407q16 -25 -14 -25h-49q-19 0 -25 14l-162 295h-1142l-164 -295q-8 -14 -25 -14h-49q-30 0 -14 25zM326 391h1052l-524 952zM524 1599v48q0 15 17 22q50 20 108 23q62 3 88 -2q31 -5 92 -21l101 -22q30 -9 97.5 -1.5 t121.5 33.5q25 9 25 -14v-49q0 -18 -27 -27q-138 -53 -338 0q-88 22 -129 25q-38 3 -131 -29q-25 -9 -25 14z" />
<glyph unicode="&#xc4;" d="M29 25l778 1407q6 14 24 14h46q18 0 24 -14l772 -1407q16 -25 -14 -25h-49q-19 0 -25 14l-162 295h-1142l-164 -295q-8 -14 -25 -14h-49q-30 0 -14 25zM326 391h1052l-524 952zM655 1583v223q0 21 21 21h41q20 0 20 -21v-223q0 -20 -20 -20h-41q-21 0 -21 20zM965 1583 v223q0 21 20 21h41q21 0 21 -21v-223q0 -20 -21 -20h-41q-20 0 -20 20z" />
<glyph unicode="&#xc5;" d="M29 25l778 1407q6 14 24 14h46q18 0 24 -14l772 -1407q16 -25 -14 -25h-49q-19 0 -25 14l-162 295h-1142l-164 -295q-8 -14 -25 -14h-49q-30 0 -14 25zM326 391h1052l-524 952zM655 1729v14q0 172 185 172h18q182 0 182 -172v-14q0 -90 -43 -134.5t-139 -44.5h-18 q-185 0 -185 179zM737 1729q0 -56 21.5 -76.5t81.5 -20.5h18q60 0 80 20t20 77v14q0 54 -20 72t-80 18h-18q-60 0 -81.5 -19.5t-21.5 -70.5v-14z" />
<glyph unicode="&#xc6;" horiz-adv-x="2383" d="M-22 9q-4 9 4 16l1065 1409q9 12 26 12h1219q20 0 20 -21v-41q0 -20 -20 -20h-1121v-578h807q21 0 21 -20v-41q0 -20 -21 -20h-807v-623h1121q20 0 20 -21v-41q0 -20 -20 -20h-1182q-20 0 -20 20v289h-791l-223 -297q-9 -12 -27 -12h-55q-12 0 -16 9zM360 391h730v963z " />
<glyph unicode="&#xc7;" horiz-adv-x="1611" d="M102 498v448q0 258 109 379t377 121h456q268 0 377 -121t109 -379v-37q0 -20 -21 -20h-41q-20 0 -20 20v37q0 238 -88 326q-89 92 -316 92h-456q-227 0 -316 -92q-88 -88 -88 -326v-448q0 -235 88 -326q90 -90 316 -90h456q226 0 316 90q88 91 88 326v59q0 21 20 21h41 q21 0 21 -21v-59q0 -258 -109 -379q-107 -119 -377 -119h-178l-86 -354q-3 -19 -22 -19h-62q-23 0 -16 23l119 350h-211q-270 0 -377 119q-109 121 -109 379z" />
<glyph unicode="&#xc8;" horiz-adv-x="1427" d="M129 20v1405q0 21 21 21h1181q21 0 21 -21v-41q0 -20 -21 -20h-1120v-578h807q20 0 20 -20v-41q0 -20 -20 -20h-807v-623h1120q21 0 21 -21v-41q0 -20 -21 -20h-1181q-21 0 -21 20zM580 1790q-16 25 14 25h59q16 0 23 -17l90 -219q9 -25 -16 -25h-25q-19 0 -25 15z" />
<glyph unicode="&#xc9;" horiz-adv-x="1427" d="M129 20v1405q0 21 21 21h1181q21 0 21 -21v-41q0 -20 -21 -20h-1120v-578h807q20 0 20 -20v-41q0 -20 -20 -20h-807v-623h1120q21 0 21 -21v-41q0 -20 -21 -20h-1181q-21 0 -21 20zM725 1577l92 219q6 16 23 16h59q29 0 14 -24l-122 -221q-9 -15 -25 -15h-25 q-25 0 -16 25z" />
<glyph unicode="&#xca;" horiz-adv-x="1427" d="M129 20v1405q0 21 21 21h1181q21 0 21 -21v-41q0 -20 -21 -20h-1120v-578h807q20 0 20 -20v-41q0 -20 -20 -20h-807v-623h1120q21 0 21 -21v-41q0 -20 -21 -20h-1181q-21 0 -21 20zM480 1557q-4 7 3 18l189 225q9 12 24 12h84q16 0 25 -12l188 -225q7 -11 3.5 -18 t-15.5 -7h-61q-15 0 -25 13l-156 190l-157 -190q-10 -13 -25 -13h-61q-12 0 -16 7z" />
<glyph unicode="&#xcb;" horiz-adv-x="1427" d="M129 20v1405q0 21 21 21h1181q21 0 21 -21v-41q0 -20 -21 -20h-1120v-578h807q20 0 20 -20v-41q0 -20 -20 -20h-807v-623h1120q21 0 21 -21v-41q0 -20 -21 -20h-1181q-21 0 -21 20zM545 1581v223q0 21 20 21h41q21 0 21 -21v-223q0 -20 -21 -20h-41q-20 0 -20 20z M854 1581v223q0 21 20 21h41q21 0 21 -21v-223q0 -20 -21 -20h-41q-20 0 -20 20z" />
<glyph unicode="&#xcc;" horiz-adv-x="327" d="M23 1790q-16 25 14 25h59q16 0 23 -17l90 -219q9 -25 -16 -25h-25q-19 0 -25 15zM143 20v1405q0 21 21 21h41q20 0 20 -21v-1405q0 -20 -20 -20h-41q-21 0 -21 20z" />
<glyph unicode="&#xcd;" horiz-adv-x="327" d="M129 20v1405q0 21 21 21h40q21 0 21 -21v-1405q0 -20 -21 -20h-40q-21 0 -21 20zM143 1579l93 219q7 17 22 17h59q14 0 18 -6.5t-3 -18.5l-123 -221q-9 -15 -25 -15h-24q-26 0 -17 25z" />
<glyph unicode="&#xce;" horiz-adv-x="327" d="M-85.5 1557q-3.5 7 3.5 18l188 225q9 12 25 12h84q16 0 25 -12l188 -225q7 -11 3.5 -18t-15.5 -7h-62q-14 0 -24 13l-156 190l-158 -190q-10 -13 -24 -13h-62q-12 0 -15.5 7zM133 20v1405q0 21 21 21h41q20 0 20 -21v-1405q0 -20 -20 -20h-41q-21 0 -21 20z" />
<glyph unicode="&#xcf;" horiz-adv-x="327" d="M-25 1581v223q0 21 21 21h41q20 0 20 -21v-223q0 -20 -20 -20h-41q-21 0 -21 20zM129 20v1405q0 21 21 21h40q21 0 21 -21v-1405q0 -20 -21 -20h-40q-21 0 -21 20zM285 1581v223q0 21 20 21h41q21 0 21 -21v-223q0 -20 -21 -20h-41q-20 0 -20 20z" />
<glyph unicode="&#xd0;" horiz-adv-x="1687" d="M27 725v41q0 20 20 20h119v639q0 21 20 21h916q272 0 377 -123q106 -121 106 -420v-368q0 -298 -106 -416q-104 -119 -377 -119h-916q-20 0 -20 20v685h-119q-20 0 -20 20zM248 82h854q235 0 317 94q84 96 84 359v368q0 267 -84 363q-82 98 -317 98h-854v-578h581 q21 0 21 -20v-41q0 -20 -21 -20h-581v-623z" />
<glyph unicode="&#xd1;" horiz-adv-x="1576" d="M129 20v1405q0 21 21 21h59q15 0 24 -12l1133 -1338v1329q0 21 20 21h41q21 0 21 -21v-1405q0 -20 -21 -20h-67q-16 0 -25 12l-1124 1327v-1319q0 -20 -21 -20h-40q-21 0 -21 20zM451 1595v47q0 17 16 23q50 20 108 23q63 3 89 -2q31 -5 92 -21l100 -23q30 -9 97.5 -1.5 t121.5 34.5q25 9 25 -14v-49q0 -16 -17 -23q-146 -62 -348 -4q-88 22 -129 25q-38 3 -131 -29q-24 -9 -24 14z" />
<glyph unicode="&#xd2;" d="M102 498v448q0 258 109 379t377 121h497q268 0 377 -121t109 -379v-448q0 -258 -109 -379q-107 -119 -377 -119h-497q-270 0 -377 119q-109 121 -109 379zM184 498q0 -235 88 -326q90 -90 316 -90h497q226 0 316 90q88 91 88 326v448q0 238 -88 326q-89 92 -316 92h-497 q-227 0 -316 -92q-88 -88 -88 -326v-448zM672 1790q-16 25 14 25h59q16 0 23 -17l90 -219q9 -25 -16 -25h-25q-18 0 -24 15z" />
<glyph unicode="&#xd3;" d="M102 498v448q0 258 109 379t377 121h497q268 0 377 -121t109 -379v-448q0 -258 -109 -379q-107 -119 -377 -119h-497q-270 0 -377 119q-109 121 -109 379zM184 498q0 -235 88 -326q90 -90 316 -90h497q226 0 316 90q88 91 88 326v448q0 238 -88 326q-89 92 -316 92h-497 q-227 0 -316 -92q-88 -88 -88 -326v-448zM823 1577l92 219q6 16 23 16h59q30 0 15 -24l-123 -221q-9 -15 -25 -15h-24q-26 0 -17 25z" />
<glyph unicode="&#xd4;" d="M102 498v448q0 258 109 379t377 121h497q268 0 377 -121t109 -379v-448q0 -258 -109 -379q-107 -119 -377 -119h-497q-270 0 -377 119q-109 121 -109 379zM184 498q0 -235 88 -326q90 -90 316 -90h497q226 0 316 90q88 91 88 326v448q0 238 -88 326q-89 92 -316 92h-497 q-227 0 -316 -92q-88 -88 -88 -326v-448zM578 1561q-4 9 4 16l188 225q10 13 25 13h84q14 0 24 -13l189 -225q8 -7 3.5 -16t-16.5 -9h-61q-15 0 -25 13l-155 190l-158 -190q-10 -13 -25 -13h-61q-12 0 -16 9z" />
<glyph unicode="&#xd5;" d="M102 498v448q0 258 109 379t377 121h497q268 0 377 -121t109 -379v-448q0 -258 -109 -379q-107 -119 -377 -119h-497q-270 0 -377 119q-109 121 -109 379zM184 498q0 -235 88 -326q90 -90 316 -90h497q226 0 316 90q88 91 88 326v448q0 238 -88 326q-89 92 -316 92h-497 q-227 0 -316 -92q-88 -88 -88 -326v-448zM512 1593v47q0 17 16 23q49 20 109 23q58 3 88 -3q44 -8 92 -20l101 -23q30 -9 97.5 -1.5t121.5 34.5q24 9 24 -14v-49q0 -17 -16 -23q-146 -62 -348 -4q-88 22 -129 25q-38 3 -131 -29q-25 -9 -25 14z" />
<glyph unicode="&#xd6;" d="M102 498v448q0 258 109 379t377 121h497q268 0 377 -121t109 -379v-448q0 -258 -109 -379q-107 -119 -377 -119h-497q-270 0 -377 119q-109 121 -109 379zM184 498q0 -235 88 -326q90 -90 316 -90h497q226 0 316 90q88 91 88 326v448q0 238 -88 326q-89 92 -316 92h-497 q-227 0 -316 -92q-88 -88 -88 -326v-448zM641 1579v223q0 21 21 21h40q21 0 21 -21v-223q0 -20 -21 -20h-40q-21 0 -21 20zM950 1579v223q0 21 21 21h41q20 0 20 -21v-223q0 -20 -20 -20h-41q-21 0 -21 20z" />
<glyph unicode="&#xd7;" horiz-adv-x="901" d="M115 1020q-15 14 0 29l30 30q15 15 29 0l293 -293l287 287q14 14 28 0l31 -29q14 -14 0 -28l-289 -289l291 -291q14 -14 0 -28l-29 -29q-14 -14 -28 0l-291 291l-293 -291q-14 -15 -29 0l-28 29q-14 14 0 28l291 291z" />
<glyph unicode="&#xd8;" d="M102 498v448q0 258 109 379t377 121h420l34 131q3 18 23 18h37q24 0 18 -22l-33 -127q266 0 375 -121t109 -379v-448q0 -258 -109 -379q-107 -119 -377 -119h-376l-33 -125q-3 -18 -23 -18h-39q-22 0 -16 22l31 121h-41q-270 0 -377 119q-109 121 -109 379zM184 498 q0 -235 88 -326q90 -90 316 -90h63l334 1282h-397q-227 0 -316 -92q-88 -88 -88 -326v-448zM731 82h354q226 0 316 90q88 91 88 326v448q0 238 -88 326q-89 92 -316 92h-20z" />
<glyph unicode="&#xd9;" horiz-adv-x="1660" d="M137 498v927q0 21 21 21h41q20 0 20 -21v-927q0 -235 88 -326q90 -90 316 -90h415q226 0 316 90q88 91 88 326v927q0 21 20 21h41q21 0 21 -21v-927q0 -258 -109 -379q-107 -119 -377 -119h-415q-270 0 -377 119q-109 121 -109 379zM668 1786q-15 24 14 24h59 q17 0 23 -16l90 -219q9 -25 -16 -25h-25q-19 0 -25 15z" />
<glyph unicode="&#xda;" horiz-adv-x="1660" d="M137 498v927q0 21 21 21h41q20 0 20 -21v-927q0 -235 88 -326q90 -90 316 -90h415q226 0 316 90q88 91 88 326v927q0 21 20 21h41q21 0 21 -21v-927q0 -258 -109 -379q-107 -119 -377 -119h-415q-270 0 -377 119q-109 121 -109 379zM805 1577l92 219q6 16 23 16h59 q29 0 14 -24l-123 -221q-6 -15 -24 -15h-25q-25 0 -16 25z" />
<glyph unicode="&#xdb;" horiz-adv-x="1660" d="M137 498v927q0 21 21 21h41q20 0 20 -21v-927q0 -235 88 -326q90 -90 316 -90h415q226 0 316 90q88 91 88 326v927q0 21 20 21h41q21 0 21 -21v-927q0 -258 -109 -379q-107 -119 -377 -119h-415q-270 0 -377 119q-109 121 -109 379zM572 1557q-4 7 3 18l189 225 q9 12 24 12h84q16 0 25 -12l188 -225q7 -11 3.5 -18t-15.5 -7h-61q-15 0 -25 13l-156 190l-157 -190q-10 -13 -25 -13h-61q-12 0 -16 7z" />
<glyph unicode="&#xdc;" horiz-adv-x="1660" d="M137 498v927q0 21 21 21h41q20 0 20 -21v-927q0 -235 88 -326q90 -90 316 -90h415q226 0 316 90q88 91 88 326v927q0 21 20 21h41q21 0 21 -21v-927q0 -258 -109 -379q-107 -119 -377 -119h-415q-270 0 -377 119q-109 121 -109 379zM635 1579v223q0 21 20 21h41 q21 0 21 -21v-223q0 -20 -21 -20h-41q-20 0 -20 20zM944 1579v223q0 21 21 21h41q20 0 20 -21v-223q0 -20 -20 -20h-41q-21 0 -21 20z" />
<glyph unicode="&#xdd;" horiz-adv-x="1521" d="M-22 1437q4 9 16 9h53q16 0 25 -12l702 -963l686 963q9 12 25 12h51q12 0 16 -9t-4 -16l-733 -1030v-371q0 -20 -20 -20h-41q-21 0 -21 20v369l-751 1032q-8 7 -4 16zM752 1577l92 219q6 16 22 16h60q29 0 14 -24l-123 -221q-6 -15 -24 -15h-25q-25 0 -16 25z" />
<glyph unicode="&#xde;" horiz-adv-x="1478" d="M129 20v1405q0 21 21 21h40q21 0 21 -21v-208h623q326 0 444 -109q119 -107 119 -381v-12q0 -272 -117 -377t-446 -105h-623v-213q0 -20 -21 -20h-40q-21 0 -21 20zM211 315h623q289 0 385 78q96 81 96 322v12q0 245 -96 326q-94 82 -385 82h-623v-820z" />
<glyph unicode="&#xdf;" horiz-adv-x="1480" d="M20 1090v40q0 21 21 21h176q0 243 94 344q93 100 363 100h229q200 0 288.5 -58.5t88.5 -184.5v-21q0 -167 -133 -217q242 -76 242 -373v-256q0 -286 -107 -387q-107 -98 -412 -98h-309q-20 0 -20 20v41q0 21 20 21h309q273 0 355 76t82 327v256q0 180 -90.5 254 t-292.5 74h-336q-21 0 -21 21v40q0 21 21 21h336q91 3 146.5 14.5t83.5 36t36.5 53t7.5 76.5v21q0 86 -65.5 123.5t-229.5 37.5h-229q-134 0 -203 -17t-109 -66q-39 -49 -51 -115.5t-12 -204.5v-1090q0 -20 -20 -20h-41q-21 0 -21 20v1049h-176q-21 0 -21 21z" />
<glyph unicode="&#xe0;" horiz-adv-x="1286" d="M51 307q0 157 82.5 232t284.5 98l618 70q66 9 66 63q0 170 -60 236q-57 63 -249 63h-629q-21 0 -21 21v40q0 21 21 21h629q215 0 303 -78t88 -260v-793q0 -20 -21 -20h-41q-20 0 -20 20v199q-35 -116 -117 -168q-80 -51 -270 -51h-234q-210 0 -320 77.5t-110 229.5z M133 307q0 -225 348 -225h234q219 0 301 88q86 89 86 307v156l-676 -78q-177 -21 -236 -74q-57 -51 -57 -174zM512 1491q-16 25 14 25h60q15 0 22 -17l90 -219q9 -25 -16 -25h-25q-18 0 -24 15z" />
<glyph unicode="&#xe1;" horiz-adv-x="1286" d="M51 307q0 157 82.5 232t284.5 98l618 70q66 9 66 63q0 170 -60 236q-57 63 -249 63h-629q-21 0 -21 21v40q0 21 21 21h629q215 0 303 -78t88 -260v-793q0 -20 -21 -20h-41q-20 0 -20 20v199q-35 -116 -117 -168q-80 -51 -270 -51h-234q-210 0 -320 77.5t-110 229.5z M133 307q0 -225 348 -225h234q219 0 301 88q86 89 86 307v156l-676 -78q-177 -21 -236 -74q-57 -51 -57 -174zM602 1282l92 219q7 17 23 17h59q14 0 18 -6.5t-3 -18.5l-123 -221q-9 -15 -25 -15h-25q-25 0 -16 25z" />
<glyph unicode="&#xe2;" horiz-adv-x="1286" d="M51 307q0 157 82.5 232t284.5 98l618 70q66 9 66 63q0 170 -60 236q-57 63 -249 63h-629q-21 0 -21 21v40q0 21 21 21h629q215 0 303 -78t88 -260v-793q0 -20 -21 -20h-41q-20 0 -20 20v199q-35 -116 -117 -168q-80 -51 -270 -51h-234q-210 0 -320 77.5t-110 229.5z M133 307q0 -225 348 -225h234q219 0 301 88q86 89 86 307v156l-676 -78q-177 -21 -236 -74q-57 -51 -57 -174zM408.5 1262.5q-3.5 7.5 3.5 17.5l188 225q10 13 25 13h84q14 0 24 -13l189 -225q7 -10 3 -17.5t-16 -7.5h-61q-15 0 -25 13l-155 190l-158 -190q-10 -13 -25 -13 h-61q-12 0 -15.5 7.5z" />
<glyph unicode="&#xe3;" horiz-adv-x="1286" d="M51 307q0 157 82.5 232t284.5 98l618 70q66 9 66 63q0 170 -60 236q-57 63 -249 63h-629q-21 0 -21 21v40q0 21 21 21h629q215 0 303 -78t88 -260v-793q0 -20 -21 -20h-41q-20 0 -20 20v199q-35 -116 -117 -168q-80 -51 -270 -51h-234q-210 0 -320 77.5t-110 229.5z M133 307q0 -225 348 -225h234q219 0 301 88q86 89 86 307v156l-676 -78q-177 -21 -236 -74q-57 -51 -57 -174zM373 1303v47q0 16 16 22q49 20 109 23q62 3 88 -2q31 -5 92 -21l100 -22q30 -9 97.5 -1.5t121.5 33.5q25 9 25 -14v-49q0 -17 -16 -23q-146 -63 -349 -4 q-88 22 -129 25q-38 3 -131 -29q-24 -9 -24 15z" />
<glyph unicode="&#xe4;" horiz-adv-x="1286" d="M51 307q0 157 82.5 232t284.5 98l618 70q66 9 66 63q0 170 -60 236q-57 63 -249 63h-629q-21 0 -21 21v40q0 21 21 21h629q215 0 303 -78t88 -260v-793q0 -20 -21 -20h-41q-20 0 -20 20v199q-35 -116 -117 -168q-80 -51 -270 -51h-234q-210 0 -320 77.5t-110 229.5z M133 307q0 -225 348 -225h234q219 0 301 88q86 89 86 307v156l-676 -78q-177 -21 -236 -74q-57 -51 -57 -174zM471 1284v223q0 21 21 21h40q21 0 21 -21v-223q0 -20 -21 -20h-40q-21 0 -21 20zM780 1284v223q0 21 21 21h41q20 0 20 -21v-223q0 -20 -20 -20h-41q-21 0 -21 20 z" />
<glyph unicode="&#xe5;" horiz-adv-x="1286" d="M51 307q0 157 82.5 232t284.5 98l618 70q66 9 66 63q0 170 -60 236q-57 63 -249 63h-629q-21 0 -21 21v40q0 21 21 21h629q215 0 303 -78t88 -260v-793q0 -20 -21 -20h-41q-20 0 -20 20v199q-35 -116 -117 -168q-80 -51 -270 -51h-234q-210 0 -320 77.5t-110 229.5z M133 307q0 -225 348 -225h234q219 0 301 88q86 89 86 307v156l-676 -78q-177 -21 -236 -74q-57 -51 -57 -174zM475 1432v14q0 172 184 172h19q182 0 182 -172v-14q0 -90 -43 -134.5t-139 -44.5h-19q-184 0 -184 179zM557 1432q0 -56 21 -76.5t81 -20.5h19q60 0 80 20t20 77 v14q0 54 -20 72t-80 18h-19q-59 0 -80.5 -19t-21.5 -71v-14z" />
<glyph unicode="&#xe6;" horiz-adv-x="2312" d="M51 307q0 157 82.5 232t284.5 98l618 70q66 9 66 63q0 170 -60 236q-57 63 -249 63h-629q-21 0 -21 21v40q0 21 21 21h624q170 0 254 -50t107 -161q25 114 109.5 162.5t265.5 48.5h293q137 0 220 -25t126 -84q44 -59 61 -136t17 -204v-167q0 -21 -21 -21h-1034v-59 q0 -234 63 -303q64 -70 279 -70h600q20 0 20 -21v-41q0 -20 -20 -20h-600q-200 0 -287 60.5t-106 205.5q-37 -137 -137.5 -201.5t-282.5 -64.5h-234q-210 0 -320 77.5t-110 229.5zM133 307q0 -225 348 -225h234q213 0 300 91t87 304v156l-676 -78q-177 -21 -236 -74 q-57 -51 -57 -174zM1186 596h973v106q0 223 -66 295t-276 72h-289q-211 0 -277 -72q-65 -71 -65 -295v-106z" />
<glyph unicode="&#xe7;" horiz-adv-x="1341" d="M92 455v247q0 127 17 204t61 136q43 59 126 84t220 25h340q249 0 334 -94q87 -93 90 -344q0 -21 -20 -21h-41q-21 0 -21 21q-3 220 -68 288t-274 68h-340q-210 0 -276 -72t-66 -295v-247q0 -233 64 -303t278 -70h340q212 0 277 68q62 68 65 292q0 21 21 21h41 q20 0 20 -21q-3 -258 -92 -350q-86 -92 -332 -92h-131l-86 -354q-3 -19 -23 -19h-61q-23 0 -16 23l118 350h-141q-137 0 -220 25t-126 84q-44 59 -61 137t-17 209z" />
<glyph unicode="&#xe8;" horiz-adv-x="1300" d="M92 455v247q0 127 17 204t61 136q43 59 126 84t220 25h289q137 0 220 -25t126 -84q44 -59 61 -136t17 -204v-167q0 -21 -21 -21h-1034v-59q0 -233 64 -303t278 -70h600q21 0 21 -21v-41q0 -20 -21 -20h-600q-137 0 -220 25t-126 84q-44 59 -61 137t-17 209zM174 596h973 v106q0 223 -66 295t-276 72h-289q-210 0 -276 -72t-66 -295v-106zM498 1493q-16 25 14 25h59q16 0 23 -17l90 -219q9 -25 -16 -25h-25q-19 0 -25 15z" />
<glyph unicode="&#xe9;" horiz-adv-x="1300" d="M92 455v247q0 127 17 204t61 136q43 59 126 84t220 25h289q137 0 220 -25t126 -84q44 -59 61 -136t17 -204v-167q0 -21 -21 -21h-1034v-59q0 -233 64 -303t278 -70h600q21 0 21 -21v-41q0 -20 -21 -20h-600q-137 0 -220 25t-126 84q-44 59 -61 137t-17 209zM174 596h973 v106q0 223 -66 295t-276 72h-289q-210 0 -276 -72t-66 -295v-106zM643 1284l92 219q7 17 23 17h59q30 0 14 -25l-122 -221q-8 -14 -25 -14h-25q-25 0 -16 24z" />
<glyph unicode="&#xea;" horiz-adv-x="1300" d="M92 455v247q0 127 17 204t61 136q43 59 126 84t220 25h289q137 0 220 -25t126 -84q44 -59 61 -136t17 -204v-167q0 -21 -21 -21h-1034v-59q0 -233 64 -303t278 -70h600q21 0 21 -21v-41q0 -20 -21 -20h-600q-137 0 -220 25t-126 84q-44 59 -61 137t-17 209zM174 596h973 v106q0 223 -66 295t-276 72h-289q-210 0 -276 -72t-66 -295v-106zM404 1261.5q-4 8.5 4 16.5l188 225q10 13 25 13h84q14 0 24 -13l189 -225q8 -8 3.5 -16.5t-16.5 -8.5h-61q-15 0 -25 13l-155 190l-158 -190q-10 -13 -25 -13h-61q-12 0 -16 8.5z" />
<glyph unicode="&#xeb;" horiz-adv-x="1300" d="M92 455v247q0 127 17 204t61 136q43 59 126 84t220 25h289q137 0 220 -25t126 -84q44 -59 61 -136t17 -204v-167q0 -21 -21 -21h-1034v-59q0 -233 64 -303t278 -70h600q21 0 21 -21v-41q0 -20 -21 -20h-600q-137 0 -220 25t-126 84q-44 59 -61 137t-17 209zM174 596h973 v106q0 223 -66 295t-276 72h-289q-210 0 -276 -72t-66 -295v-106zM467 1286v223q0 21 20 21h41q21 0 21 -21v-223q0 -20 -21 -20h-41q-20 0 -20 20zM776 1286v223q0 21 21 21h41q20 0 20 -21v-223q0 -20 -20 -20h-41q-21 0 -21 20z" />
<glyph unicode="&#xec;" horiz-adv-x="315" d="M2 1493q-16 25 14 25h60q15 0 22 -17l90 -219q9 -25 -16 -25h-25q-18 0 -24 15zM131 20v1110q0 21 21 21h41q20 0 20 -21v-1110q0 -20 -20 -20h-41q-21 0 -21 20z" />
<glyph unicode="&#xed;" horiz-adv-x="315" d="M117 20v1110q0 21 20 21h41q21 0 21 -21v-1110q0 -20 -21 -20h-41q-20 0 -20 20zM139 1284l92 219q7 17 23 17h59q14 0 18 -6.5t-3 -18.5l-123 -221q-8 -14 -25 -14h-24q-26 0 -17 24z" />
<glyph unicode="&#xee;" horiz-adv-x="315" d="M-95.5 1262.5q-3.5 7.5 3.5 17.5l188 225q10 13 25 13h84q14 0 24 -13l189 -225q7 -10 3.5 -17.5t-15.5 -7.5h-62q-15 0 -25 13l-155 190l-158 -190q-10 -13 -24 -13h-62q-12 0 -15.5 7.5zM121 20v1110q0 21 20 21h41q21 0 21 -21v-1110q0 -20 -21 -20h-41q-20 0 -20 20z " />
<glyph unicode="&#xef;" horiz-adv-x="315" d="M-35 1284v223q0 21 21 21h41q20 0 20 -21v-223q0 -20 -20 -20h-41q-21 0 -21 20zM117 20v1110q0 21 20 21h41q21 0 21 -21v-1110q0 -20 -21 -20h-41q-20 0 -20 20zM274 1284v223q0 21 21 21h41q20 0 20 -21v-223q0 -20 -20 -20h-41q-21 0 -21 20z" />
<glyph unicode="&#xf0;" horiz-adv-x="1372" d="M92 455v247q0 127 17 204t61 136q43 59 126 84t220 25h229q284 0 363 -76l-117 223h-483q-21 0 -21 21v41q0 20 21 20h440l-80 150q-9 24 15 24h47q18 0 24 -14l84 -160h140q20 0 20 -20v-41q0 -21 -20 -21h-97l21 -41q105 -201 145 -325q33 -109 33 -227v-250 q0 -131 -17 -209t-61 -137q-43 -59 -126 -84t-220 -25h-340q-137 0 -220 25t-126 84q-44 59 -61 137t-17 209zM174 455q0 -233 64 -303t278 -70h340q213 0 277 70q65 71 65 303v247q0 226 -65 297q-64 70 -277 70h-340q-210 0 -276 -72t-66 -295v-247z" />
<glyph unicode="&#xf1;" horiz-adv-x="1363" d="M117 20v1110q0 21 20 21h41q21 0 21 -21v-169q26 103 108 146.5t254 43.5h277q137 0 220 -25t126 -84q44 -59 61 -137t17 -209v-678q0 -20 -21 -20h-41q-20 0 -20 20v678q0 229 -66 301t-276 72h-297q-100 0 -157.5 -14t-100.5 -51q-84 -73 -84 -308v-676q0 -20 -21 -20 h-41q-20 0 -20 20zM389 1315v47q0 15 17 22q50 20 108 23q62 3 88 -2q31 -5 92 -21l101 -22q30 -9 97.5 -1.5t121.5 34.5q24 9 24 -15v-49q0 -17 -26 -26q-138 -53 -338 0q-82 21 -129 24q-38 3 -131 -29q-25 -9 -25 15z" />
<glyph unicode="&#xf2;" horiz-adv-x="1372" d="M92 455v247q0 127 17 204t61 136q43 59 126 84t220 25h340q137 0 220 -25t126 -84q44 -59 61 -136t17 -204v-247q0 -131 -17 -209t-61 -137q-43 -59 -126 -84t-220 -25h-340q-137 0 -220 25t-126 84q-44 59 -61 137t-17 209zM174 455q0 -233 64 -303t278 -70h340 q213 0 277 70q65 71 65 303v247q0 224 -65 295q-66 72 -277 72h-340q-210 0 -276 -72t-66 -295v-247zM517 1511.5q4 6.5 18 6.5h59q15 0 22 -17l91 -219q9 -25 -17 -25h-24q-19 0 -25 15l-121 221q-7 12 -3 18.5z" />
<glyph unicode="&#xf3;" horiz-adv-x="1372" d="M92 455v247q0 127 17 204t61 136q43 59 126 84t220 25h340q137 0 220 -25t126 -84q44 -59 61 -136t17 -204v-247q0 -131 -17 -209t-61 -137q-43 -59 -126 -84t-220 -25h-340q-137 0 -220 25t-126 84q-44 59 -61 137t-17 209zM174 455q0 -233 64 -303t278 -70h340 q213 0 277 70q65 71 65 303v247q0 224 -65 295q-66 72 -277 72h-340q-210 0 -276 -72t-66 -295v-247zM672 1280l92 219q7 17 22 17h60q30 0 14 -25l-123 -221q-9 -15 -24 -15h-25q-25 0 -16 25z" />
<glyph unicode="&#xf4;" horiz-adv-x="1372" d="M92 455v247q0 127 17 204t61 136q43 59 126 84t220 25h340q137 0 220 -25t126 -84q44 -59 61 -136t17 -204v-247q0 -131 -17 -209t-61 -137q-43 -59 -126 -84t-220 -25h-340q-137 0 -220 25t-126 84q-44 59 -61 137t-17 209zM174 455q0 -233 64 -303t278 -70h340 q213 0 277 70q65 71 65 303v247q0 224 -65 295q-66 72 -277 72h-340q-210 0 -276 -72t-66 -295v-247zM420 1261.5q-4 8.5 4 16.5l188 225q10 13 25 13h84q14 0 24 -13l189 -225q8 -8 4 -16.5t-16 -8.5h-62q-14 0 -24 13l-156 190l-158 -190q-10 -13 -24 -13h-62 q-12 0 -16 8.5z" />
<glyph unicode="&#xf5;" horiz-adv-x="1372" d="M92 455v247q0 127 17 204t61 136q43 59 126 84t220 25h340q137 0 220 -25t126 -84q44 -59 61 -136t17 -204v-247q0 -131 -17 -209t-61 -137q-43 -59 -126 -84t-220 -25h-340q-137 0 -220 25t-126 84q-44 59 -61 137t-17 209zM174 455q0 -233 64 -303t278 -70h340 q213 0 277 70q65 71 65 303v247q0 224 -65 295q-66 72 -277 72h-340q-210 0 -276 -72t-66 -295v-247zM373 1305v47q0 16 16 22q49 20 109 23q62 3 88 -2q31 -5 92 -21l100 -22q30 -9 97.5 -1.5t121.5 33.5q25 9 25 -14v-49q0 -17 -16 -23q-146 -63 -349 -4q-88 22 -129 25 q-38 3 -131 -29q-24 -9 -24 15z" />
<glyph unicode="&#xf6;" horiz-adv-x="1372" d="M92 455v247q0 127 17 204t61 136q43 59 126 84t220 25h340q137 0 220 -25t126 -84q44 -59 61 -136t17 -204v-247q0 -131 -17 -209t-61 -137q-43 -59 -126 -84t-220 -25h-340q-137 0 -220 25t-126 84q-44 59 -61 137t-17 209zM174 455q0 -233 64 -303t278 -70h340 q213 0 277 70q65 71 65 303v247q0 224 -65 295q-66 72 -277 72h-340q-210 0 -276 -72t-66 -295v-247zM483 1284v223q0 21 21 21h41q20 0 20 -21v-223q0 -20 -20 -20h-41q-21 0 -21 20zM793 1284v223q0 21 20 21h41q20 0 20 -21v-223q0 -20 -20 -20h-41q-20 0 -20 20z" />
<glyph unicode="&#xf7;" horiz-adv-x="1120" d="M86 705v40q0 21 20 21h908q20 0 20 -21v-40q0 -21 -20 -21h-908q-20 0 -20 21zM520 217v242q0 20 21 20h41q20 0 20 -20v-242q0 -20 -20 -20h-41q-21 0 -21 20zM520 995v242q0 20 21 20h41q20 0 20 -20v-242q0 -20 -20 -20h-41q-21 0 -21 20z" />
<glyph unicode="&#xf8;" horiz-adv-x="1372" d="M92 455v247q0 127 17 204t61 136q43 59 126 84t220 25h268l33 129q3 18 23 18h47q22 0 16 -22l-31 -125q131 -2 210.5 -28t121.5 -85q43 -56 59.5 -132t16.5 -204v-247q0 -131 -17 -209t-61 -137q-43 -59 -126 -84t-220 -25h-270l-33 -127q-3 -18 -23 -18h-47 q-22 0 -16 22l31 123q-249 3 -326 102q-80 103 -80 353zM174 455q0 -233 64 -303t278 -70h2l246 987h-248q-210 0 -276 -72t-66 -295v-247zM606 82h250q213 0 277 70q65 71 65 303v247q0 224 -65 295q-66 72 -277 72h-4z" />
<glyph unicode="&#xf9;" horiz-adv-x="1357" d="M117 453v677q0 21 20 21h41q21 0 21 -21v-677q0 -234 63 -303q64 -70 279 -70h276q100 0 157.5 14t100.5 51q84 73 84 308v675q0 21 21 21h41q20 0 20 -21v-1110q0 -20 -20 -20h-41q-21 0 -21 20v170q-26 -103 -108 -146.5t-254 -43.5h-256q-137 0 -220 24.5t-126 83.5 q-44 59 -61 137.5t-17 209.5zM523 1509.5q4 6.5 18 6.5h59q16 0 23 -17l90 -219q9 -25 -17 -25h-24q-19 0 -25 15l-121 221q-7 12 -3 18.5z" />
<glyph unicode="&#xfa;" horiz-adv-x="1357" d="M117 453v677q0 21 20 21h41q21 0 21 -21v-677q0 -234 63 -303q64 -70 279 -70h276q100 0 157.5 14t100.5 51q84 73 84 308v675q0 21 21 21h41q20 0 20 -21v-1110q0 -20 -20 -20h-41q-21 0 -21 20v170q-26 -103 -108 -146.5t-254 -43.5h-256q-137 0 -220 24.5t-126 83.5 q-44 59 -61 137.5t-17 209.5zM643 1280l92 219q7 17 23 17h59q30 0 14 -25l-122 -221q-9 -15 -25 -15h-25q-25 0 -16 25z" />
<glyph unicode="&#xfb;" horiz-adv-x="1357" d="M117 453v677q0 21 20 21h41q21 0 21 -21v-677q0 -234 63 -303q64 -70 279 -70h276q100 0 157.5 14t100.5 51q84 73 84 308v675q0 21 21 21h41q20 0 20 -21v-1110q0 -20 -20 -20h-41q-21 0 -21 20v170q-26 -103 -108 -146.5t-254 -43.5h-256q-137 0 -220 24.5t-126 83.5 q-44 59 -61 137.5t-17 209.5zM430 1261.5q-4 8.5 4 16.5l189 225q10 13 24 13h84q15 0 25 -13l188 -225q8 -8 4 -16.5t-16 -8.5h-62q-14 0 -24 13l-156 190l-158 -190q-10 -13 -24 -13h-62q-12 0 -16 8.5z" />
<glyph unicode="&#xfc;" horiz-adv-x="1357" d="M117 453v677q0 21 20 21h41q21 0 21 -21v-677q0 -234 63 -303q64 -70 279 -70h276q100 0 157.5 14t100.5 51q84 73 84 308v675q0 21 21 21h41q20 0 20 -21v-1110q0 -20 -20 -20h-41q-21 0 -21 20v170q-26 -103 -108 -146.5t-254 -43.5h-256q-137 0 -220 24.5t-126 83.5 q-44 59 -61 137.5t-17 209.5zM494 1286v223q0 21 20 21h41q20 0 20 -21v-223q0 -20 -20 -20h-41q-20 0 -20 20zM803 1286v223q0 21 20 21h41q21 0 21 -21v-223q0 -20 -21 -20h-41q-20 0 -20 20z" />
<glyph unicode="&#xfd;" horiz-adv-x="1394" d="M133 453v677q0 21 21 21h41q20 0 20 -21v-677q0 -233 64 -303t278 -70h297q100 0 157.5 14t100.5 51q84 73 84 308v675q0 21 21 21h40q21 0 21 -21v-1077q0 -229 -90 -342q-87 -112 -342 -112h-596q-21 0 -21 20v41q0 20 21 20h596q206 0 278 84t72 289v137 q-26 -103 -108 -146.5t-254 -43.5h-277q-137 0 -220 24.5t-126 83.5q-44 59 -61 137.5t-17 209.5zM653 1280l92 219q7 17 23 17h59q14 0 18 -6.5t-3 -18.5l-123 -221q-6 -15 -25 -15h-24q-26 0 -17 25z" />
<glyph unicode="&#xfe;" horiz-adv-x="1396" d="M119 -383v1917q0 20 20 20h41q21 0 21 -20v-444q73 61 362 61h318q137 0 220 -25t126 -84q44 -59 61 -136t17 -204v-247q0 -131 -17 -209t-61 -137q-43 -59 -126 -84t-220 -25h-318q-172 0 -254 43.5t-108 146.5v-573q0 -20 -21 -20h-41q-20 0 -20 20zM201 455 q0 -235 84 -308q43 -37 100.5 -51t157.5 -14h338q212 0 276 70q66 72 66 303v247q0 223 -66 295t-276 72h-338q-97 0 -154.5 -14t-103.5 -51q-84 -70 -84 -302v-247z" />
<glyph unicode="&#xff;" horiz-adv-x="1394" d="M133 453v677q0 21 21 21h41q20 0 20 -21v-677q0 -233 64 -303t278 -70h297q100 0 157.5 14t100.5 51q84 73 84 308v675q0 21 21 21h40q21 0 21 -21v-1077q0 -229 -90 -342q-87 -112 -342 -112h-596q-21 0 -21 20v41q0 20 21 20h596q206 0 278 84t72 289v137 q-26 -103 -108 -146.5t-254 -43.5h-277q-137 0 -220 24.5t-126 83.5q-44 59 -61 137.5t-17 209.5zM510 1286v223q0 21 20 21h41q21 0 21 -21v-223q0 -20 -21 -20h-41q-20 0 -20 20zM819 1286v223q0 21 21 21h41q20 0 20 -21v-223q0 -20 -20 -20h-41q-21 0 -21 20z" />
<glyph unicode="&#x152;" horiz-adv-x="2764" d="M102 498v448q0 258 109 379t377 121h477q168 0 263 -46.5t138 -146.5v172q0 21 21 21h1182q20 0 20 -21v-41q0 -20 -20 -20h-1121v-578h807q21 0 21 -20v-41q0 -20 -21 -20h-807v-623h1121q20 0 20 -21v-41q0 -20 -20 -20h-1182q-21 0 -21 20v170q-82 -190 -401 -190 h-477q-270 0 -377 119q-109 121 -109 379zM184 498q0 -235 88 -326q90 -90 316 -90h477q215 0 308 78t93 266v592q0 189 -92.5 267.5t-308.5 78.5h-477q-227 0 -316 -92q-88 -88 -88 -326v-448z" />
<glyph unicode="&#x153;" horiz-adv-x="2406" d="M92 455v247q0 127 17 204t61 136q43 59 126 84t220 25h340q180 0 266.5 -48.5t116.5 -160.5q30 112 116.5 160.5t266.5 48.5h289q137 0 220 -25t126 -84q44 -59 61 -136t17 -204v-167q0 -21 -21 -21h-1034v-59q0 -234 63 -303q64 -70 279 -70h600q21 0 21 -21v-41 q0 -20 -21 -20h-600q-181 0 -267 48.5t-116 162.5q-30 -114 -116 -162.5t-267 -48.5h-340q-137 0 -220 25t-126 84q-44 59 -61 137t-17 209zM174 455q0 -233 64 -303t278 -70h340q213 0 277 70q65 71 65 303v247q0 224 -65 295q-66 72 -277 72h-340q-210 0 -276 -72 t-66 -295v-247zM1280 596h973v106q0 223 -66 295t-276 72h-289q-210 0 -276 -72t-66 -295v-106z" />
<glyph unicode="&#x178;" horiz-adv-x="1521" d="M-22 1437q4 9 16 9h53q16 0 25 -12l702 -963l686 963q9 12 25 12h51q12 0 16 -9t-4 -16l-733 -1030v-371q0 -20 -20 -20h-41q-21 0 -21 20v369l-751 1032q-8 7 -4 16zM588 1585v223q0 21 20 21h41q21 0 21 -21v-223q0 -20 -21 -20h-41q-20 0 -20 20zM897 1585v223 q0 21 21 21h40q21 0 21 -21v-223q0 -20 -21 -20h-40q-21 0 -21 20z" />
<glyph unicode="&#x2c6;" horiz-adv-x="1142" d="M315.5 1192q-4.5 8 3.5 16l189 226q9 12 24 12h84q16 0 25 -12l188 -226q8 -8 4 -16t-16 -8h-61q-16 0 -25 12l-156 190l-157 -190q-9 -12 -25 -12h-61q-12 0 -16.5 8z" />
<glyph unicode="&#x2dc;" horiz-adv-x="1142" d="M262 1233v47q0 16 17 23q47 19 108 22q62 3 88 -2q44 -8 92 -20l101 -23q30 -9 97.5 -1.5t121.5 34.5q24 9 24 -15v-49q0 -16 -16 -22q-146 -62 -348 -4q-83 21 -129 24q-40 3 -131 -28q-25 -9 -25 14z" />
<glyph unicode="&#x2000;" horiz-adv-x="957" />
<glyph unicode="&#x2001;" horiz-adv-x="1915" />
<glyph unicode="&#x2002;" horiz-adv-x="957" />
<glyph unicode="&#x2003;" horiz-adv-x="1915" />
<glyph unicode="&#x2004;" horiz-adv-x="638" />
<glyph unicode="&#x2005;" horiz-adv-x="478" />
<glyph unicode="&#x2006;" horiz-adv-x="319" />
<glyph unicode="&#x2007;" horiz-adv-x="319" />
<glyph unicode="&#x2008;" horiz-adv-x="239" />
<glyph unicode="&#x2009;" horiz-adv-x="383" />
<glyph unicode="&#x200a;" horiz-adv-x="106" />
<glyph unicode="&#x2010;" horiz-adv-x="684" d="M66 569v41q0 21 20 21h512q20 0 20 -21v-41q0 -20 -20 -20h-512q-20 0 -20 20z" />
<glyph unicode="&#x2011;" horiz-adv-x="684" d="M66 569v41q0 21 20 21h512q20 0 20 -21v-41q0 -20 -20 -20h-512q-20 0 -20 20z" />
<glyph unicode="&#x2012;" horiz-adv-x="684" d="M66 569v41q0 21 20 21h512q20 0 20 -21v-41q0 -20 -20 -20h-512q-20 0 -20 20z" />
<glyph unicode="&#x2013;" horiz-adv-x="964" d="M66 569v41q0 21 20 21h793q20 0 20 -21v-41q0 -20 -20 -20h-793q-20 0 -20 20z" />
<glyph unicode="&#x2014;" horiz-adv-x="1218" d="M66 569v41q0 21 20 21h1047q20 0 20 -21v-41q0 -20 -20 -20h-1047q-20 0 -20 20z" />
<glyph unicode="&#x2018;" horiz-adv-x="454" d="M96 807l209 623q6 16 25 16h24q26 0 19 -23l-176 -622q-7 -17 -23 -17h-61q-11 0 -15.5 6.5t-1.5 16.5z" />
<glyph unicode="&#x2019;" horiz-adv-x="454" d="M94 807l176 623q6 16 23 16h61q11 0 15.5 -6.5t1.5 -16.5l-209 -622q-7 -17 -25 -17h-24q-26 0 -19 23z" />
<glyph unicode="&#x201a;" horiz-adv-x="454" d="M94 -246l176 623q6 16 23 16h61q23 0 17 -22l-209 -623q-6 -16 -25 -16h-24q-25 0 -19 22z" />
<glyph unicode="&#x201c;" horiz-adv-x="768" d="M96 807l209 623q6 16 25 16h24q26 0 19 -23l-176 -622q-7 -17 -23 -17h-61q-11 0 -15.5 6.5t-1.5 16.5zM410 807l208 623q6 16 25 16h25q25 0 18 -23l-176 -622q-7 -17 -23 -17h-61q-23 0 -16 23z" />
<glyph unicode="&#x201d;" horiz-adv-x="768" d="M94 807l176 623q6 16 23 16h61q11 0 15.5 -6.5t1.5 -16.5l-209 -622q-7 -17 -25 -17h-24q-26 0 -19 23zM408 807l176 623q6 16 22 16h62q23 0 16 -23l-209 -622q-7 -17 -24 -17h-25q-25 0 -18 23z" />
<glyph unicode="&#x201e;" horiz-adv-x="768" d="M94 -246l176 623q6 16 23 16h61q23 0 17 -22l-209 -623q-6 -16 -25 -16h-24q-25 0 -19 22zM408 -246l176 623q6 16 22 16h62q22 0 16 -22l-209 -623q-6 -16 -24 -16h-25q-24 0 -18 22z" />
<glyph unicode="&#x2022;" horiz-adv-x="1060" d="M102 520v178q0 324 306 324h245q160 0 232.5 -81t72.5 -243v-178q0 -166 -72.5 -248t-232.5 -82h-245q-160 0 -233 83t-73 247z" />
<glyph unicode="&#x2026;" horiz-adv-x="983" d="M129 20v256q0 21 21 21h40q21 0 21 -21v-256q0 -20 -21 -20h-40q-21 0 -21 20zM451 20v256q0 21 20 21h41q20 0 20 -21v-256q0 -20 -20 -20h-41q-20 0 -20 20zM772 20v256q0 21 21 21h41q20 0 20 -21v-256q0 -20 -20 -20h-41q-21 0 -21 20z" />
<glyph unicode="&#x202f;" horiz-adv-x="383" />
<glyph unicode="&#x2039;" horiz-adv-x="522" d="M84 571q-9 15 0 29l272 389q9 12 25 12h35q29 0 14 -24l-235 -391l235 -391q16 -25 -14 -25h-35q-16 0 -25 12z" />
<glyph unicode="&#x203a;" horiz-adv-x="520" d="M115 195l233 391l-233 391q-15 24 14 24h35q15 0 24 -12l271 -389q9 -14 0 -29l-271 -389q-9 -12 -24 -12h-35q-30 0 -14 25z" />
<glyph unicode="&#x205f;" horiz-adv-x="478" />
<glyph unicode="&#x20ac;" horiz-adv-x="1660" d="M20 721v41q0 20 21 20h90v164q0 258 109 379t376 121h457q268 0 377 -121t109 -379v-37q0 -20 -21 -20h-41q-20 0 -20 20v37q0 238 -88 326q-89 92 -316 92h-457q-226 0 -315 -92q-88 -88 -88 -326v-164h760q20 0 20 -20v-41q0 -21 -20 -21h-760v-202q0 -235 88 -326 q90 -90 315 -90h457q226 0 316 90q88 91 88 326v59q0 21 20 21h41q21 0 21 -21v-59q0 -258 -109 -379q-107 -119 -377 -119h-457q-269 0 -376 119q-109 121 -109 379v202h-90q-21 0 -21 21z" />
<glyph unicode="&#x2122;" horiz-adv-x="1681" d="M41 1384v41q0 21 20 21h543q21 0 21 -21v-41q0 -20 -21 -20h-229v-643q0 -21 -21 -21h-41q-20 0 -20 21v643h-232q-20 0 -20 20zM727 721v704q0 21 21 21h53q16 0 24 -14l316 -545l315 545q8 14 25 14h51q20 0 20 -21v-704q0 -21 -20 -21h-41q-21 0 -21 21v584l-280 -500 q-8 -14 -25 -14h-49q-16 0 -24 14l-283 500v-584q0 -21 -21 -21h-40q-21 0 -21 21z" />
<glyph unicode="&#x25fc;" horiz-adv-x="1146" d="M0 0v1147h1147v-1147h-1147z" />
</font>
</defs>
</svg>
